/* XPM */
static char *result[] = {
/* columns rows colors chars-per-pixel */
"80 80 193 2 ",
"   c black",
".  c #000001",
"X  c #000101",
"o  c #010101",
"O  c #030000",
"+  c #010201",
"@  c #000002",
"#  c #010102",
"$  c #010103",
"%  c #000202",
"&  c #020202",
"*  c #030302",
"=  c #050102",
"-  c #010502",
";  c #040400",
":  c #040401",
">  c #050401",
",  c #060602",
"<  c #000004",
"1  c #010105",
"2  c #010205",
"3  c #020204",
"4  c #020205",
"5  c #010007",
"6  c #010107",
"7  c #030106",
"8  c #040206",
"9  c #000404",
"0  c #000406",
"q  c #070705",
"w  c #040506",
"e  c #080301",
"r  c #0A0503",
"t  c #0B0705",
"y  c #0A0406",
"u  c #080807",
"i  c #01010A",
"p  c #020509",
"a  c #01060B",
"s  c #02010E",
"d  c #06030C",
"f  c #06010F",
"g  c #04050D",
"h  c #0A0608",
"j  c #09070E",
"k  c #0F050F",
"l  c #020909",
"z  c #000D0E",
"x  c #080809",
"c  c #0B0A0A",
"v  c #190700",
"b  c #1C1304",
"n  c #1B1705",
"m  c #191A05",
"M  c #1B190B",
"N  c #011A11",
"B  c #06131A",
"V  c gray7",
"C  c #1B1310",
"Z  c #1F1710",
"A  c #191217",
"S  c #151518",
"D  c #10181D",
"F  c #191919",
"G  c gray11",
"H  c #2C1611",
"J  c #271F15",
"K  c #351E14",
"L  c #2B2907",
"P  c #2F2D0D",
"I  c #29201F",
"U  c #353014",
"Y  c #3A3613",
"T  c #353119",
"R  c #020127",
"E  c #081E20",
"W  c #0A322E",
"Q  c #032A30",
"!  c #1D2C34",
"~  c #023136",
"^  c #043635",
"/  c #093131",
"(  c #073B33",
")  c #0C373A",
"_  c #03383C",
"`  c #2D2D2C",
"'  c #3B3821",
"]  c #3A3C3C",
"[  c #463903",
"{  c #024438",
"}  c #4C4527",
"|  c #4F4B2C",
" . c #665C20",
".. c #6E5D27",
"X. c #79622B",
"o. c #7D712D",
"O. c #033A41",
"+. c #043843",
"@. c #1B3342",
"#. c #203A41",
"$. c #036A5C",
"%. c #22635C",
"&. c #066760",
"*. c #046662",
"=. c #036D60",
"-. c #066F69",
";. c #156460",
":. c #156561",
">. c #166560",
",. c #156D62",
"<. c #1A6E69",
"1. c #00766E",
"2. c #037A77",
"3. c #017B78",
"4. c #027B78",
"5. c #007C78",
"6. c #017C79",
"7. c #007C7A",
"8. c #017C7A",
"9. c #087979",
"0. c #097E79",
"q. c #1B7671",
"w. c #137A74",
"e. c #296362",
"r. c #23716E",
"t. c #217571",
"y. c gray27",
"u. c #534D44",
"i. c #5E5C5D",
"p. c #686345",
"a. c #7C7345",
"s. c #626055",
"d. c #696C50",
"f. c #7F7952",
"g. c #6A6A6A",
"h. c gray46",
"j. c #8C7903",
"k. c #827917",
"l. c #8E7C32",
"z. c #8E734B",
"x. c #837E5A",
"c. c #01817A",
"v. c #01847C",
"b. c #AD9F1B",
"n. c #998D32",
"m. c #C3B221",
"M. c #CEC70F",
"N. c #E7D106",
"B. c #F7DD02",
"V. c #F7DC05",
"C. c #F8DC00",
"Z. c #F8DC01",
"A. c #F9DD02",
"S. c #F8DC04",
"D. c #F5DC08",
"F. c #E6CC1A",
"G. c #E7D91D",
"H. c #F4D715",
"J. c #F3DF17",
"K. c #F7E009",
"L. c #F7E010",
"P. c #F9E51C",
"I. c #DCCF36",
"U. c #E4DA25",
"Y. c #E9D434",
"T. c #EAD736",
"R. c #A8A45C",
"E. c #8B8C77",
"W. c #959275",
"Q. c #A69F62",
"!. c #A8A773",
"~. c #ABA677",
"^. c #D2C145",
"/. c #EBD441",
"(. c #9A9A9A",
"). c #9D9FA1",
"_. c #A8A8A7",
"`. c #B0B5B8",
"'. c #F5B585",
"]. c #C0B9A6",
"[. c #CCCF9B",
"{. c #D6D594",
"}. c #D7D3A3",
"|. c #C3C2BF",
" X c #E7E2AF",
".X c #EEECBA",
"XX c #CBCBCB",
"oX c #DADADA",
"OX c #F9FCD2",
"+X c #FDFDFC",
"@X c #FDFDFD",
"#X c white",
"$X c None",
/* pixels */
"$X$X$X$X$X$X$X$X$XQ.  B.C.C.C.C./.  J   ).`.`.`.] `.  $X$X$X$X$X$X$X$X$X$X$X$X$X$X$X$X$X$X$X$X$X$X$X$X$X$X$X$X$X$X$X$X$X$X$X$X$X$X$X$X$X$X$X$X$X$X$X$X$X$X$X$X$X",
"$X$X$X$X$X$X  A.C.C.C.C.C.C.C.C.C.C.C.C.C.  . `.`.`.`.`.`.c $X$X$X$X$X$X$X$X$X$X$X$X$X$X$X$X$X$X$X$X$X$X$X$X$X$X$X$X$X$X$X$X$X$X$X$X$X$X$X$X$X$X$X$X$X$X$X$X$X$X",
"$X$X$X$X# C.C.C.C.C.C.C.C.C.C.C.C.C.C.C.C.C.C.  `.`.  `.`.`.`.  $X$X$X$X$X$X$X$X$X$X$X$X$X$X$X$X$X$X$X$X$X$X$X$X$X$X$X$X$X$X$X$X$X$X$X$X$X$X$X$X$X$X$X$X$X$X$X$X",
"$X$X$XC.C.C.C.C.C.C.C.C.C.C.C.C.C.C.C.C.C.C.C.C.v `.`.`.`.`.`.`.  $X$X$X$X$X$X$X$X$X$X$X$X$X$X$X$X$X$X$X$X$X$X$X$X$X$X$X$X$X$X$X$X$X$X$X$X$X$X$X$X$X$X$X$X$X$X$X",
"$X$XC.C.C.C.C.C.C.C.C.C.C.C.C.C.C.C.C.C.+ C.C.C.C.  `.`.`.`.`.`.`.$X$X$X$X$X$X$X$X$X$X$X$X$X$X$X$X$X$X$X$X$X$X$X$X$X$X$X$X$X$X$X$X$X$X$X$X$X$X$X$X$X$X$X$X$X$X$X",
"$Xo.C.C.C.C.C.C.C.C.C.C.C.C.C.C.C.C.C.C.C.C.T.C.C.  `.`.`.  `.`.`.. $X$X$X$X$X$X$X$X$X$X$X$X$X$X$X$X$X$X$X$X$X$X$X$X$X$X$X$X$X$X$X$X$X$X$X$X$X$X$X$X$X$X$X$X$X$X",
"$XC.C.C.C.C.C.C.C.C.C.C.C.C.C.C.C.C.C.C.C.C.M.C.C.`.`.`.`.`.`.x `.  $X$X$X$X$X$X$X$X$X$X$X$X$X$X$X$X$X$X$X$X$X$X$X$X$X$X$X$X$X$X$X$X$X$X$X$X$X$X$X$X$X$X$X$X$X$X",
"$XC.C.C.C.C.C.C.C.C.C.C.C.C.C.C.C.C.P.C.C.C.C.C.`.`.`.`.`.`.`.`.  $X$X$X$X$X$X$X$X$X$X$X$X$X$X$X$X$X$X$X$X$X$X$X$X$X$X$X$X$X$X$X$X$X$X$X$X$X$X$X$X$X$X$X$X$X$X$X",
"$XC.C.C.C.C.C.C.C.C.C.C.C.C.C.C.C.C.C.C.C.C.C.`.`.`.`.1 i `.`.`.S $X$X$X$X$X$X$X$X$X$X$X$X$X$X$X$X$X$X$X$X$X$X$X$X$X$X$X$X$X$X$X$X$X$X$X$X$X$X$X$X$X$X$X$X$X$X$X",
"$XC.C.C.C.C.C.C.C.C.C.C.C.C.C.C.C.C.C.C.C.C.`.`.`.  C.C.X.C.j `.$X$X$X$X$X$X$X$X$X$X$X$X$X$X$X$X$X$X$X$X$X$X$X$X$X$X$X$X$X$X$X$X$X$X$X$X$X$X$X$X$X$X$X$X$X$X$X$X",
"$X< C.C.C.C.C.C.C.C.C.C.C.C.C.C.C.C.C.C.C.C.2 `.`.  C.C.C.C.  $X$X$X$X$X$X$X$X$X$X$X$X$X$X$X$X$X$X$X$X$X$X$X$X$X$X$X$X$X$X$X$X$X$X$X$X$X$X$X$X$X$X$X$X$X$X$X$X$X",
"$X$X  C.C.C.C.C.C.C.C.C.C.C.C.C.j.4 C.C.C.C.C.`.`.`.  C.C.G.$X$X$X$X$X$X$X$X$X$X$X$X$X$X$X$X$X$X$X$X$X$X$X$X$X$X$X$X$X$X$X$X$X$X$X$X$X$X$X$X$X$X$X$X$X$X$X$X$X$X",
"$X$XA #XG     N.C.C...    #X  #X#X  C.C.C.C.C.C.`.`.  C.  $X$X$X$X$X$X$X$X$X$X$X$X$X$X$X$X$X$X$X$X$X$X$X$X$X$X$X$X$X$X$X$X$X$X$X$X$X$X$X$X$X$X$X$X$X$X$X$X$X$X$X",
"$X$X7 #X#X#XF C.C. .#X#X#X#X#X#X` C.C.C.C.C.C.C.H.C.C.C.$X$X$X$X$X$X$X$X$X$X$X$X$X$X$X$X$X$X$X$X$X$X$X$X$X$X$X$X$X$X$X$X$X$X$X$X$X$X$X$X$X$X$X$X$X$X$X$X$X$X$X$X",
"$X$X$Xz.^.s C.C.C.C.C.[       C.C.C.C.C.C.C.C.C.C.C.C.  $X$X$X$X$X$X$X$X$X$X$X$X$X$X$X$X$X$X$X$X$X$X$X$X$X$X$X$X$X$X$X$X$X$X$X$X$X$X$X$X$X$X$X$X$X$X$X$X$X$X$X$X",
"$X$X$X$X  C.C.C.C.C.C.C.C.C.C.C.C.C.C.C.C.C.C.C.C.C.C.$X$X$X$X$X$X$X$X$X$X$X$X$X$X$X$X$X$X$X$X$X$X$X$X$X$X$X$X$X$X$X$X$X$X$X$X$X$X$X$X$X$X$X$X$X$X$X$X$X$X$X$X$X",
"$X$X$Xn.C.C.C.C.C.C.C.C.C.C.C.C.C.C.C.C.C.C.C.C.C.C.C.$X$X$X$X$X$X$X$X$X$X$X$X$X$X$X$X$X$X$X$X$X$X$X$X$X$X$X$X$X$X$X$X$X$X$X$X$X$X$X$X$X$X$X$X$X$X$X$X$X$X$X$X$X",
"$X$XC.C.C.C.C.C.C.C.C.C.C.C.C.C.C.C.C.C.C.C.  +Xm.C.C.C.  B = ; $X$X$X$X$X$X$X$X$X$X$X$X$X$X$X$X$X$X$X$X$X$X$X$X$X$X$X$X$X$X$X$X$X$X$X$X$X$X$X$X$X$X$X$X$X$X$X$X",
"$XL.C.C.C.C.C.U.C.C.C.C.C.C.C.C.C.C.C.C.(.#X  C.C.C.C.C.J.o N 7.7.q. X$X$X$X$X$X$X$X$X$X$X$X$X$X$X$X$X$X$X$X$X$X$X$X$X$X$X$X$X$X$X$X$X$X$X$X$X$X$X$X$X$X$X$X$X$X",
"  C.C.C.C.f.C.C.C.C.C.C.C.C.C.C.F.y.#Xw L C.C.C.C.C.C.C.C.C.  #X0.7.7.7.z $X$X$X$X$X$X$X$X$X$X$X$X$X$X$X$X$X$X$X$X$X$X$X$X$X$X$X$X$X$X$X$X$X$X$X$X$X$X$X$X$X$X$X",
"a.C.C.  $X$XC.C.C.C.C.C.>   #X  _.D.C.C.C.C.C.C.C.C.C.C.C.C.C.& #X7.7.7.7.7.  $X$X$X$X$X$X$X$X$X$X$X$X$X$X$X$X$X$X$X$X$X$X$X$X$X$X$X$X$X$X$X$X$X$X$X$X$X$X$X$X$X",
"R , $X$X$X$X$X$X$X$X$X  !.$X$X$X$X$X$X$Xp C.C.C.C.C.C.C.C.C.C.g.#X#.7.7.  7.7.  $X$X$X$X$X$X$X$X$X$X$X$X$X$X$X$X$X$X$X$X$X$X$X$X$X$X$X$X$X$X$X$X$X$X$X$X$X$X$X$X",
"$X$X$X$X$X$X$X$X$X$X$X$X$X$X$X$X$X$X$X$X$XX   C.C.C.C.C.C.C.S.#X#Xe.7.7.7.7.7.7.@ $X$X$X$X$X$X$X$X$X$X$X$X$X$X$X$X$X$X$X$X$X$X$X$X$X$X$X$X$X$X$X$X$X$X$X$X$X$X$X",
"$X$X$X$X$X$X$X$X$X$X$X$X$X$X$X$X$X$X$X$XR.7.7.7.|.b C.C.C.  #X#X#X8.7.7.7.  7.7.7.$X$X$X$X$X$X$X$X$X$X$X$X$X$X$X$X$X$X$X$X$X$X$X$X$X$X$X$X$X$X$X$X$X$X$X$X$X$X$X",
"$X$X$X$X$X$X$X$X$X$X$X$X$X$X$X$X$X$X$X$X@.7.7.7.#X#X'.'.'.#X#X#X#X7.7.7.7.{ 7.7.7.( $X$X$X$X$X$X$X$X$X$X$X$X$X$X$X$X$X$X$X$X$X$X$X$X$X$X$X$X$X$X$X$X$X$X$X$X$X$X",
"$X$X$X$X$X$X$X$X$X$X$X$X$X$X$X$X$X$X$X$X  7.7.&.#X  '.'.'.  #X#X& 7.7.7.  7.7.7.7.7.s.$X$X$X$X$X$X$X$X$X$X$X$X$X$X$X$X$X$X$X$X$X$X$X$X$X$X$X$X$X$X$X$X$X$X$X$X$X",
"$X$X$X$X$X$X$X$X$X$X$X$X$X$X$X$X$X$X$X$X7.7.7.7.#X#X  '.t #Xh.#X  7.  7.7.7.7.7.7.7.*.$X$X$X$X$X$X$X$X$X$X$X$X$X$X$X$X$X$X$X$X$X$X$X$X$X$X$X$X$X$X$X$X$X$X$X$X$X",
"$X$X$X$X$X$X$X$X$X$X$X$X$X$X$X$X$X$X$X} 7.7.7.7.#X#XXX'.#X#X#X#X7.7.7.7.7.7.7.7.7.7.7..X$X$X$X$X$X$X$X$X$X$X$X$X$X$X$X$X$X$X$X$X$X$X$X$X$X$X$X$X$X$X$X$X$X$X$X$X",
"$X$X$X$X$X$X$X$X$X$X$X$X$X$X$X$X$X$X$X0   7.7.7.#X#XI '.oX#X#X  7.7.7.7.7.7.7.7.7.7.7.  $X$X$X$X$X$X$X$X$X$X$X$X$X$X$X$X$X$X$X$X$X$X$X$X$X$X$X$X$X$X$X$X$X$X$X$X",
"$X$X$X$X$X$X$X$X$X$X$X$X$X$X$X$X$X$X$X7.7.7.7.7.  #X'.'.  #X#X7.7.7.7.) 7.  7.7.7.7.7.7.$X$X$X$X$X$X$X$X$X$X$X$X$X$X$X$X$X$X$X$X$X$X$X$X$X$X$X$X$X$X$X$X$X$X$X$X",
"$X$X$X$X$X$X$X$X$X$X$X$X$X$X$X$X$X$X  7.7.  7.7.  #X'.'.K #X  7.7.7.  7.7.  7.7.7.7.7.7.$X$X$X$X$X$X$X$X$X$X$X$X$X$X$X$X$X$X$X$X$X$X$X$X$X$X$X$X$X$X$X$X$X$X$X$X",
"$X$X$X$X$X$X$X$X$X$X5 C.C.C.C.C.  C.C.C.C.C.e 7.7.#X'.'.'.#X7.7.7.5.7.7.7.=.7.7.7.7.7.7.  $X$X$X$X$X$X$X$X$X$X$X$X$X$X$X$X$X$X$X$X$X$X$X$X$X$X$X$X$X$X$X$X$X$X$X",
"$X$X$X$X$X$X$X$X$X$X  C.C.  $X$X$X$Xv.~ C.C.C.7.7.  '.'.'.  7.7.7.7.7.7.7.1.7.7.7.7.7.7.. $X$X$X$X$X$X$X$X$X$X$X$X$X$X$X$X$X$X$X$X$X$X$X$X$X$X$X$X$X$X$X$X$X$X$X",
"$X$X$X$X$X$X$X$X$X  V.C.C.C.Z.C.C.C.C.k.c.C.C.  7.E '.'.H 7.7.7.7.7.7.7.7.$.7.7.7.7.7.7.  $X$X$X$X$X$X$X$X$X$X$X$X$X$X$X$X$X$X$X$X$X$X$X$X$X$X$X$X$X$X$X$X$X$X$X",
"$X$X$X$X$X$X$X$X  C.C.b.            Z C.C.C.C.O   7.'.'.2.7.7.7.7.7.7.7.7.  7.7.7.7.7.7.  $X$X$X$X$X$X$X$X$X$X$X$X$X$X$X$X$X$X$X$X$X$X$X$X$X$X$X$X$X$X$X$X$X$X$X",
"$X$X$X$X$X$X$X$X$Xl.C.C.C.C.C.C.Y.V ,.4.C.C.C.Z.7.. 7.  7.7.7.7.7.7.7.7.7.  7.7.7.7.7.7.9   $X$X$X$X$X$X$X$X$X$X$X$X$X$X$X$X$X$X$X$X$X$X$X$X$X$X$X$X$X$X$X$X$X$X",
"$X$X$X$X$X$X$X$X$XC.C.C.C.C.C.C.C.C.C.C.C.C.C.C.  -.  7.9.7.7.7.7.7.7.7.  7.7.7.7.7.7.7.7.  $X$X$X$X$X$X$X$X$X$X$X$X$X$X$X$X$X$X$X$X$X$X$X$X$X$X$X$X$X$X$X$X$X$X",
"$X$X$X$X$X$X$X$X$XC.C.C.C.C.C.C.  #X    C.C.C.C.C.# #X#X#X7.7.7.7.7.7.7.7.7.7.7.7.7.7.  7.7.$X$X$X$X$X$X$X$X$X$X$X$X$X$X$X$X$X$X$X$X$X$X$X$X$X$X$X$X$X$X$X$X$X$X",
"$X$X$X$X$X$X$X$X$X' C.C.C.C.C.C.  #X  7.:.C.C.C.C.  #X#X#X7.7.7.7.7.7.7.7.7.7.7.7.7.7.7.7.7.$X$X$X$X$X$X$X$X$X$X$X$X$X$X$X$X$X$X$X$X$X$X$X$X$X$X$X$X$X$X$X$X$X$X",
"$X$X$X$X$X$X$X$X$X$X$X  C.C.C.I.#X#XD 7.7.  C.C.K.#X#X#X#X7.7.7.7.7.7.7.7.7.7.7.7.7.a 7.7.7.$X$X$X$X$X$X$X$X$X$X$X$X$X$X$X$X$X$X$X$X$X$X$X$X$X$X$X$X$X$X$X$X$X$X",
"$X$X$X$X$X$X$X$X$X$X$X$X$X$X$X        [.$X$X$X  ^   i.@X7.7.7.7.7.7.7.7.7.7.7.  % 7.7.7.7.7.].$X$X$X$X$X$X$X$X$X$X$X$X$X$X$X$X$X$X$X$X$X$X$X$X$X$X$X$X$X$X$X$X$X",
"$X$X$X$X$X$X$X$X$X$X$X$X$X$X$X$X$X$X$X$X$X$X$X  7.7.7.! 7.7.7.7.7.7.7.7.7.7.7.7.7.7.7.7.7.7.  $X$X$X$X$X$X$X$X$X$X$X$X$X$X$X$X$X$X$X$X$X$X$X$X$X$X$X$X$X$X$X$X$X",
"$X$X$X$X$X$X$X$X$X$X$X$X$X$X$X$X$X$X$X$X$X$X$X  7.7.7./ 7.7.7.7.7.7.7.7.7.7.7.7.7.7.7.7.7.7.  $X$X$X$X$X$X$X$X$X$X$X$X$X$X$X$X$X$X$X$X$X$X$X$X$X$X$X$X$X$X$X$X$X",
"$X$X$X$X$X$X$X$X$X$X$X$X$X$X$X$X$X$X$X$X$X$X$X  7.7.7.;.7.7.7.7.7.7.7.7.7.7.7.7.7.7.7.7.7.7.  $X$X$X$X$X$X$X$X$X$X$X$X$X$X$X$X$X$X$X$X$X$X$X$X$X$X$X$X$X$X$X$X$X",
"$X$X$X$X$X$X$X$X$X$X$X$X$X$X$X$X$X$X$X$X$X$X$Xg 7.7.7.7.7.7.7.7.7.7.7.7.7.7.7.7.7.7.7.7.7.7.  $X$X$X$X$X$X$X$X$X$X$X$X$X$X$X$X$X$X$X$X$X$X$X$X$X$X$X$X$X$X$X$X$X",
"$X$X$X$X$X$X$X$X$X$X$X$X$X$X$X$X$X$X$X$X$X$X$X<.7.7.7.7.7.7.7.7.7.7.7.7.7.7.7.7.7.7.7.7.7.7.  $X$X$X$X$X$X$X$X$X$X$X$X$X$X$X$X$X$X$X$X$X$X$X$X$X$X$X$X$X$X$X$X$X",
"$X$X$X$X$X$X$X$X$X$X$X$X$X$X$X$X$X$X$X$X$X$X$X7.7.7.7.7.7.7.7.7.7.7.7.7.7.7.7.7.7.7.7.7.7.7.  $X$X$X$X$X$X$X$X$X$X$X$X$X$X$X$X$X$X$X$X$X$X$X$X$X$X$X$X$X$X$X$X$X",
"$X$X$X$X$X$X$X$X$X$X$X$X$X$X$X$X$X$X$X$X$X$X$X7.7.7.7.7.7.7.7.7.7.7.7.7.7.7.7.7.7.7.7.7.7.7.: $X$X$X$X$X$X$X$X$X$X$X$X$X$X$X$X$X$X$X$X$X$X$X$X$X$X$X$X$X$X$X$X$X",
"$X$X$X$X$X$X$X$X$X$X$X$X$X$X$X$X$X$X$X$X$X$X$X7.7.7.7.7.7.7.7.7.7.7.7.7.7.7.7.7.7.7.7.7.7.7.  $X$X$X$X$X$X$X$X$X$X$X$X$X$X$X$X$X$X$X$X$X$X$X$X$X$X$X$X$X$X$X$X$X",
"$X$X$X$X$X$X$X$X$X$X$X$X$X$X$X$X$X$X$X$X$X$X$X  7.7.7.7.7.7.7.7.7.7.7.7.7.7.7.7.7.7.7.7.7.7.$X$X$X$X$X$X$X$X$X$X$X$X$X$X$X$X$X$X$X$X$X$X$X$X$X$X$X$X$X$X$X$X$X$X",
"$X$X$X$X$X$X$X$X$X$X$X$X$X$X$X$X$X$X$X$X$X$X$X$X  7.7.>.  _ 7.7.7.7.7.7.7.7.7.7.7.7.7.7.    $X$X$X$X$X$X$X$X$X$X$X$X$X$X$X$X$X$X$X$X$X$X$X$X$X$X$X$X$X$X$X$X$X$X",
"$X$X$X$X$X$X$X$X$X$X$X$X$X$X$X$X$X$X$X$X$X$X$X$X%.7.7.7.7.7.7.7.7.$X$X7.7.7.7.7.7.7.7.7.$X$X$X$X$X$X$X$X$X$X$X$X$X$X$X$X$X$X$X$X$X$X$X$X$X$X$X$X$X$X$X$X$X$X$X$X",
"$X$X$X$X$X$X$X$X$X$X$X$X$X$X$X$X$X$X$X$X$X$X$X$X7.7.7.7.7.7.7.7.7.$X$X7.7.7.7.7.7.7.7.7.$X$X$X$X$X$X$X$X$X$X$X$X$X$X$X$X$X$X$X$X$X$X$X$X$X$X$X$X$X$X$X$X$X$X$X$X",
"$X$X$X$X$X$X$X$X$X$X$X$X$X$X$X$X$X$X$X$X$X$X$X$X7.7.7.7.7.7.7.7.Q $XC 7.7.7.7.7.7.7.7.3.$X$X$X$X$X$X$X$X$X$X$X$X$X$X$X$X$X$X$X$X$X$X$X$X$X$X$X$X$X$X$X$X$X$X$X$X",
"$X$X$X$X$X$X$X$X$X$X$X$X$X$X$X$X$X$X$X$X$X$X$X{.7.7.7.7.7.7.7.7.  $X  7.7.7.7.7.7.7.7.  $X$X$X$X$X$X$X$X$X$X$X$X$X$X$X$X$X$X$X$X$X$X$X$X$X$X$X$X$X$X$X$X$X$X$X$X",
"$X$X$X$X$X$X$X$X$X$X$X$X$X$X$X$X$X$X$X$X$X$X$X  7.7.7.7.7.7.7.7.E.$X. 7.7.7.7.7.7.7.7.  $X$X$X$X$X$X$X$X$X$X$X$X$X$X$X$X$X$X$X$X$X$X$X$X$X$X$X$X$X$X$X$X$X$X$X$X",
"$X$X$X$X$X$X$X$X$X$X$X$X$X$X$X$X$X$X$X$X$X$X$X  7.7.7.7.7.7.7.7.$X$X  7.7.7.7.7.7.7.7.  $X$X$X$X$X$X$X$X$X$X$X$X$X$X$X$X$X$X$X$X$X$X$X$X$X$X$X$X$X$X$X$X$X$X$X$X",
"$X$X$X$X$X$X$X$X$X$X$X$X$X$X$X$X$X$X$X$X$X$X$X  7.7.7.7.7.7.7.7.$X$X  7.7.7.7.7.7.7.7.  $X$X$X$X$X$X$X$X$X$X$X$X$X$X$X$X$X$X$X$X$X$X$X$X$X$X$X$X$X$X$X$X$X$X$X$X",
"$X$X$X$X$X$X$X$X$X$X$X$X$X$X$X$X$X$X$X$X$X$X$Xw.7.7.7.7.7.7.7.l $X$X  7.7.7.7.7.7.7.7.x.$X$X$X$X$X$X$X$X$X$X$X$X$X$X$X$X$X$X$X$X$X$X$X$X$X$X$X$X$X$X$X$X$X$X$X$X",
"$X$X$X$X$X$X$X$X$X$X$X$X$X$X$X$X$X$X$X$X$X$X$X7.7.7.7.7.7.7.7.  $X$X  7.7.7.7.7.7.7.7.$X$X$X$X$X$X$X$X$X$X$X$X$X$X$X$X$X$X$X$X$X$X$X$X$X$X$X$X$X$X$X$X$X$X$X$X$X",
"$X$X$X$X$X$X$X$X$X$X$X$X$X$X$X$X$X$X$X$X$X$X$X7.7.7.7.7.7.7.7.  $X$X  7.7.7.7.7.7.7.7.$X$X$X$X$X$X$X$X$X$X$X$X$X$X$X$X$X$X$X$X$X$X$X$X$X$X$X$X$X$X$X$X$X$X$X$X$X",
"$X$X$X$X$X$X$X$X$X$X$X$X$X$X$X$X$X$X$X$X$X$X$X7.7.7.7.7.7.7.7.U $X$X  7.7.7.7.7.7.7.7.$X$X$X$X$X$X$X$X$X$X$X$X$X$X$X$X$X$X$X$X$X$X$X$X$X$X$X$X$X$X$X$X$X$X$X$X$X",
"$X$X$X$X$X$X$X$X$X$X$X$X$X$X$X$X$X$X$X$X$X$X$X7.7.7.7.7.7.7.7.$X$X$X  7.7.7.7.7.7.7.7.$X$X$X$X$X$X$X$X$X$X$X$X$X$X$X$X$X$X$X$X$X$X$X$X$X$X$X$X$X$X$X$X$X$X$X$X$X",
"$X$X$X$X$X$X$X$X$X$X$X$X$X$X$X$X$X$X$X$X$X$X$X7.7.7.7.7.7.7.7.$X$X$X  7.7.7.7.7.7.7.7.$X$X$X$X$X$X$X$X$X$X$X$X$X$X$X$X$X$X$X$X$X$X$X$X$X$X$X$X$X$X$X$X$X$X$X$X$X",
"$X$X$X$X$X$X$X$X$X$X$X$X$X$X$X$X$X$X$X$X$X$X$X7.7.7.7.7.7.7.7.$X$X$X  7.7.7.7.7.7.7.7.$X$X$X$X$X$X$X$X$X$X$X$X$X$X$X$X$X$X$X$X$X$X$X$X$X$X$X$X$X$X$X$X$X$X$X$X$X",
"$X$X$X$X$X$X$X$X$X$X$X$X$X$X$X$X$X$X$X$X$X$X$X7.7.7.7.7.7.7.7.$X$X$X  7.7.7.7.7.7.7.7.$X$X$X$X$X$X$X$X$X$X$X$X$X$X$X$X$X$X$X$X$X$X$X$X$X$X$X$X$X$X$X$X$X$X$X$X$X",
"$X$X$X$X$X$X$X$X$X$X$X$X$X$X$X$X$X$X$X$X$X$X$X7.7.7.7.7.7.7.7.$X$X$X  7.7.7.7.7.7.7.7.$X$X$X$X$X$X$X$X$X$X$X$X$X$X$X$X$X$X$X$X$X$X$X$X$X$X$X$X$X$X$X$X$X$X$X$X$X",
"$X$X$X$X$X$X$X$X$X$X$X$X$X$X$X$X$X$X$X$X$X$X$X7.7.7.7.7.7.7.7.$X$X$X  7.7.7.7.7.7.7.7.$X$X$X$X$X$X$X$X$X$X$X$X$X$X$X$X$X$X$X$X$X$X$X$X$X$X$X$X$X$X$X$X$X$X$X$X$X",
"$X$X$X$X$X$X$X$X$X$X$X$X$X$X$X$X$X$X$X$X$X$X$X7.7.7.7.7.7.7.O.$X$X$X  7.7.7.7.7.7.7.7.$X$X$X$X$X$X$X$X$X$X$X$X$X$X$X$X$X$X$X$X$X$X$X$X$X$X$X$X$X$X$X$X$X$X$X$X$X",
"$X$X$X$X$X$X$X$X$X$X$X$X$X$X$X$X$X$X$X$X$X$X$X7.7.7.7.7.7.7.+.$X$X$Xu 7.7.7.7.7.7.7.7.$X$X$X$X$X$X$X$X$X$X$X$X$X$X$X$X$X$X$X$X$X$X$X$X$X$X$X$X$X$X$X$X$X$X$X$X$X",
"$X$X$X$X$X$X$X$X$X$X$X$X$X$X$X$X$X$X$X$X$X$X$X7.7.7.7.7.7.7.7.$X$X$X$X7.7.7.7.7.7.7.7.$X$X$X$X$X$X$X$X$X$X$X$X$X$X$X$X$X$X$X$X$X$X$X$X$X$X$X$X$X$X$X$X$X$X$X$X$X",
"$X$X$X$X$X$X$X$X$X$X$X$X$X$X$X$X$X$X$X$X$X$X$Xt.7.7.7.7.7.7.7.$X$X$X$X7.7.7.7.7.7.7.7.  $X$X$X$X$X$X$X$X$X$X$X$X$X$X$X$X$X$X$X$X$X$X$X$X$X$X$X$X$X$X$X$X$X$X$X$X",
"$X$X$X$X$X$X$X$X$X$X$X$X$X$X$X$X$X$X$X$X$X$X$X$X. #X#X#X#X#X$X$X$X$X$X6.7.7.7.7.7.7.7.  $X$X$X$X$X$X$X$X$X$X$X$X$X$X$X$X$X$X$X$X$X$X$X$X$X$X$X$X$X$X$X$X$X$X$X$X",
"$X$X$X$X$X$X$X$X$X$X$X$X$X$X$X$X$X$X$X$X$X$X$X                $X$X$X$X| r.7.7.7.7.7.7.W $X$X$X$X$X$X$X$X$X$X$X$X$X$X$X$X$X$X$X$X$X$X$X$X$X$X$X$X$X$X$X$X$X$X$X$X",
"$X$X$X$X$X$X$X$X$X$X$X$X$X$X$X$X$X$X$X$X$X                    $X$X$X$X$X$X#X#X#X#X#X#X$X$X$X$X$X$X$X$X$X$X$X$X$X$X$X$X$X$X$X$X$X$X$X$X$X$X$X$X$X$X$X$X$X$X$X$X$X",
"$X$X$X$X$X$X$X$X$X$X$X$X$X$X$X$X$X$X                          $X$X$X$X$X              $X$X$X$X$X$X$X$X$X$X$X$X$X$X$X$X$X$X$X$X$X$X$X$X$X$X$X$X$X$X$X$X$X$X$X$X$X",
"$X$X$X$X$X$X$X$X$X$X$X$X$X$X$X                                $X$X$X                    $X$X$X$X$X$X$X$X$X$X$X$X$X$X$X$X$X$X$X$X$X$X$X$X$X$X$X$X$X$X$X$X$X$X$X$X",
"$X$X$X$X$X$X$X$X$X$X$X$X$X$X$XM                     $X$X$X$X$X                            $X$X$X$X$X$X$X$X$X$X$X$X$X$X$X$Xr u.$X$X$X$X$X$X$X$X$X$X$X$X$X$X$X$X$X",
"$X$X$X$X$X$X$X$X$X$X$X$X$X$X$X$X$X$X$X$X$X$X$X$X$X$X$X$Xq                                 $X$X$Xo - $X5 < $X$Xo $X$X$X$Xf $XW.d n Y $X$Xp.$Xy $X3 8 $X$X$X$ $Xh ",
"$X$X$X$X$X$X$X$X$X$X$X$X$X$X$X$X$X$X$X$X$X$X$X$X$X$X$X$X$X                      $X~.$X$X$X$X$X$XOX$Xd.k $X$X$X$X$X$X$X$XP 6 $X* $X$X$X$Xm }.$X$X$X$X$X$X$X4 $XT "
};
