/* XPM */
static char *result[] = {
/* columns rows colors chars-per-pixel */
"80 80 256 2 ",
"   c #010101",
".  c #0B0202",
"X  c #01010A",
"o  c #090A06",
"O  c #150604",
"+  c #181604",
"@  c #030116",
"#  c #161514",
"$  c #110E0E",
"%  c #270606",
"&  c #291B07",
"*  c #301115",
"=  c #10290F",
"-  c #2E280F",
";  c #07132A",
":  c #380D2A",
">  c #262824",
",  c #333330",
"<  c #142827",
"1  c #4C0A0C",
"2  c #700813",
"3  c #4E380F",
"4  c #4E122E",
"5  c #6F0E30",
"6  c #4B302F",
"7  c #6F2330",
"8  c #6B360B",
"9  c #26512D",
"0  c #524519",
"q  c #6F4D12",
"w  c #504B2C",
"e  c #715333",
"r  c #75672C",
"t  c #68601E",
"y  c #301A4B",
"u  c #0E344D",
"i  c #2B3C59",
"p  c #70154B",
"a  c #68324F",
"s  c #62215A",
"d  c #175052",
"f  c #4D504A",
"g  c #684C52",
"h  c #73674A",
"j  c #72536A",
"k  c #777470",
"l  c #8C100A",
"z  c #B21B0D",
"x  c #982324",
"c  c #CA1C13",
"v  c #F21711",
"b  c #F12B16",
"n  c #F62E29",
"m  c #9B710E",
"M  c #B87B1B",
"N  c #AB720C",
"B  c #917330",
"V  c #B1792A",
"C  c #85592A",
"Z  c #C67F15",
"A  c #C0703A",
"S  c #921649",
"D  c #8D2A58",
"F  c #AA3159",
"G  c #B21B6E",
"H  c #912E6F",
"J  c #A9286A",
"K  c #B5266B",
"L  c #AC2D77",
"P  c #BB2575",
"I  c #B52B74",
"U  c #BA2A75",
"Y  c #B52B7B",
"T  c #BB297B",
"R  c #B82678",
"E  c #A93876",
"W  c #B83379",
"Q  c #AE386A",
"!  c #B10A49",
"~  c #C61974",
"^  c #CF1974",
"/  c #C42679",
"(  c #C7357A",
")  c #D22A78",
"_  c #E32C63",
"`  c #8C734B",
"'  c #8C4E6F",
"]  c #B04D79",
"[  c #A96C56",
"{  c #CD4C70",
"}  c #26AF5E",
"|  c #30CB6A",
" . c #33A949",
".. c #B18719",
"X. c #928839",
"o. c #B28B2E",
"O. c #A39516",
"+. c #C88917",
"@. c #C68936",
"#. c #CC9637",
"$. c #CE8E2A",
"%. c #D1A536",
"&. c #D6AF18",
"*. c #F1EE01",
"=. c #F3F831",
"-. c #DFD914",
";. c #958A51",
":. c #B78848",
">. c #B2924D",
",. c #B6A869",
"<. c #A89866",
"1. c #CA984C",
"2. c #E39B51",
"3. c #D8AB58",
"4. c #CFAE52",
"5. c #E7B65B",
"6. c #EDB052",
"7. c #D7B768",
"8. c #D1B56D",
"9. c #E8BA67",
"0. c #EABA75",
"q. c #F5B76D",
"w. c #C69462",
"e. c #ECC458",
"r. c #D3C77A",
"t. c #E7C768",
"y. c #F8C978",
"u. c #F9D77A",
"i. c #EECA73",
"p. c #F4F258",
"a. c #B1CA00",
"s. c #2F6B91",
"d. c #2872A5",
"f. c #606998",
"g. c #BA2883",
"h. c #B43388",
"j. c #903883",
"k. c #CD1D84",
"l. c #C92985",
"z. c #D52E86",
"x. c #CA3686",
"c. c #D63789",
"v. c #D83996",
"b. c #CA3797",
"n. c #FB3A9C",
"m. c #E9358F",
"M. c #F83AA8",
"N. c #B34E85",
"B. c #B27389",
"V. c #955D8B",
"C. c #D7468B",
"Z. c #D94696",
"A. c #DB5799",
"S. c #C84B8F",
"D. c #F5538A",
"F. c #EC4C9C",
"G. c #E84898",
"H. c #F34D96",
"J. c #F4449B",
"K. c #F34D9D",
"L. c #FB4C9D",
"P. c #FC4699",
"I. c #E4539C",
"U. c #EC529C",
"Y. c #E75798",
"T. c #F3519D",
"R. c #F55499",
"E. c #ED4D8D",
"W. c #D36596",
"Q. c #E76C9B",
"!. c #DB58A5",
"~. c #DD4FAE",
"^. c #ED4EA2",
"/. c #EB4CA8",
"(. c #F34EA1",
"). c #FB4BA3",
"_. c #F849A8",
"`. c #E554A2",
"'. c #EC52A3",
"]. c #E958A7",
"[. c #F351A2",
"{. c #FB53A4",
"}. c #F353AA",
"|. c #F859AA",
" X c #F849B6",
".X c #FB59B6",
"XX c #E958B7",
"oX c #D66AA9",
"OX c #EA68A9",
"+X c #F565A8",
"@X c #E778AB",
"#X c #F776A9",
"$X c #F866B6",
"%X c #EC77B5",
"&X c #F776B7",
"*X c #EE68B4",
"=X c #FB79C3",
"-X c #FA75D2",
";X c #ED64D1",
":X c #3390B1",
">X c #2A96A4",
",X c #30AEF3",
"<X c #28ACD9",
"1X c #4AB5F5",
"2X c #579CD7",
"3X c #39CBF9",
"4X c #4DC9FA",
"5X c #49F5FE",
"6X c #6AE5FF",
"7X c #B1A68D",
"8X c #A99DA1",
"9X c #D48DB0",
"0X c #E889B8",
"qX c #F488BA",
"wX c #EB98BD",
"eX c #F493BD",
"rX c #F897BB",
"tX c #E687AC",
"yX c #D9AF97",
"uX c #BACAA4",
"iX c #D6CC8D",
"pX c #F9CB84",
"aX c #F7D686",
"sX c #F8D795",
"dX c #EACF8B",
"fX c #FCE498",
"gX c #FBF08F",
"hX c #D1D1B0",
"jX c #EBDAA8",
"kX c #FAE8A7",
"lX c #FEF7AA",
"zX c #FBF3B7",
"xX c #F98BC6",
"cX c #EE94C3",
"vX c #EA99C6",
"bX c #F495C3",
"nX c #FA94C4",
"mX c #F499C4",
"MX c #F797CA",
"NX c #FA9AD7",
"BX c #EC8BC9",
"VX c #FCA8D6",
"CX c #F1A9CF",
"ZX c #FCBAE7",
"AX c #FEA6E6",
"SX c #ECA8DD",
"DX c #FDFBC8",
"FX c #F9F7D0",
"GX c #FDCBF3",
"HX c #F8FCEA",
"JX c #FDFEFD",
"KX c #F8FAF5",
"LX c #EDF1F1",
"PX c #DBD2D2",
"IX c #BFBFC0",
"UX c None",
/* pixels */
"UXUXUXUXUXUXUXUXUXUXUXUXUXUXUXUXUXUXUXUXUXUXUXUXUXUXUXUXUXUXUXUXUXUXUXUXUXUXUXUXUXUXUXUXUXUXUXUXUXUXUXUXUXUXUXUXUXUXUXUXUXUXUXUXUXUXUXUXUXUXUXUXUXUXUXUXUXUXUXUX",
"UXUXUXUXUXUXUXUXUXUXUXUXUXUXUXUXUXUXUXUXUXUXUXUXUXUXUXUXUXUXUXUXUXUXUXUXUXUX#           #     X , UXUXUXUXUXUXUXUXUXUXUXUXUXUXUXUXUXUXUXUXUXUXUXUXUXUXUXUXUXUXUX",
"UXUXUXUXUXUXUXUXUXUXUXUXUXUXUXUXUXUXUXUXUXUXUXUXUXUXUX6 # $ $ # # #     o o dXzXFX7Xo X o ,.LXJXJXLX  > UXUXUXUXUXUXUXUXUXUXUXUXUXUXUXUXUXUXUXUXUXUXUXUXUXUXUXUX",
"UXUXUXUXUXUXUXUXUXUXUXUXUXUXUXUXUXUXUXUXUXUXUXUXUX#       e HXlXsXy.r.u.i.dXaXu.aXgXgX<.  * H -Xh.  lX6   $ UXUXUXUXUXUXUXUXUXUXUXUXUXUXUXUXUXUXUXUXUXUXUXUXUXUX",
"UXUXUXUXUXUXUXUXUXUXUXUXUXUXUXUXUXUXUXUXUXUX    o jXt.pXy.aXdXiXfXy.y.sXFX,.- o O 8XSXNXm.m.m.G.A.}.% w zX  X f UXUXUXUXUXUXUXUXUXUXUXUXUXUXUXUXUXUXUXUXUXUXUXUX",
"UXUXUXUXUXUXUXUXUXUXUXUXUXUXUXUXUXUXUX>     f sXpXkX& . pXu.sXkX$   O > GXGXMXqXnXbX0XBXB.<Xf.0XM./.E.W.  u.aXh   o UXUXUXUXUXUXUXUXUXUXUXUXUXUXUXUXUXUXUXUXUXUX",
"UXUXUXUXUXUXUXUXUXUXUXUXUXUXUXUXUXUX    0 jXu.aXi.sXsXaXy.u.y.[ . ZXcXmXbXcXbXbXbXvXxXcXa 4Xd.VXvXOXJ.G.xXw pXpXsX    UXUXUXUXUXUXUXUXUXUXUXUXUXUXUXUXUXUXUXUXUX",
"UXUXUXUXUXUXUXUXUXUXUXUXUXUXUXUXUX  o FXy.u.y.fXu.u.u.zXzX# o LX9XMXwXcXbXbXbXbXbXbXbXtXbX; <Xd.VXcXnXF.m.: lXpXy.lX  X UXUXUXUXUXUXUXUXUXUXUXUXUXUXUXUXUXUXUXUX",
"UXUXUXUXUXUXUXUXUXUXUXUXUXUXUXUX    7.kX;.X > g j j j 9XKXnX=XMXbXcXmXmXbXcXmXeXmXeXbXeXcXVXs.@ 9XmXbXvXCXCX& u.dXi.lX    g UXUXUXUXUXUXUXUXUXUXUXUXUXUXUXUXUXUX",
"UXUXUXUXUXUXUXUXUXUXUXUXUXUXUX  ; DXiX9XMXBXxXxX0X0X0X0XxXCXvXvXcXcXbXbXMXvXvXxXSX7 ] nXrXcXMXMXVXMXmXcXrXeX4 DXy.t.` zXiX  o < UXUXUXUXUXUXUXUXUXUXUXUXUXUXUXUX",
"UXUXUXUXUXUXUXUXUXUXUXUXUXUXUX  1 iXZXCXnXmXmXbXwXmXmXvXBXxXvXmXxXmXbXmXmXmXnXxX7 b 2 wXvXmXvXbXvXmXcXmXbXxXvXa   <.iX<.sXe.zX,   UXUXUXUXUXUXUXUXUXUXUXUXUXUXUX",
"UXUXUXUXUXUXUXUXUXUXUXUXUXUX  X KX' mXvXbXbXbXnXmXmXcXMXbXGX9XCXNXvXvXMXnXMXMXZXl x &XS.Y.xXmXeXbXmXbXmXrXwXeXBXqXVXGX. # DX5.e.kX    UXUXUXUXUXUXUXUXUXUXUXUXUX",
"UXUXUXUXUXUXUXUXUXUXUXUXUX    ;.  0XxXwXbXbXeXmXmXmXmXVX  JXJXCXMX%XI.Z.G.E.v.2 v x G.'.}.J.*XbXMXnXMXwXrXmXxXeXcXwXNXNXR.D   aXt.DX    UXUXUXUXUXUXUXUXUXUXUXUX",
"UXUXUXUXUXUXUXUXUXUXUXUXf   e ,.GXqXwXbXbXnXmXnXvXMXvX* LX7 g Z.P.(.K.K.F.F.K.Y.D I.(.K.K.`.K.#XVXf k 9XeXwXeXvXwXxXMXrX].|.+X  q.y.gX.   UXUXUXUXUXUXUXUXUXUXUX",
"UXUXUXUXUXUXUXUXUXUXUXUXo 6 gX# vXxXxXvXbXbXmXbXmXnXVXJXj $X_.F.L.T.K.(.K.F.(.J._.F.K.F.K./.(.'.&XJXKXLX=X=XxXCXbXwXmXmX%XG.G.oXfXi.t.lXo UXUXUXUXUXUXUXUXUXUXUX",
"UXUXUXUXUXUXUXUXUXUXUXX & q.@ xXvXCXB.VXeXxXnXbXmX&X( +X[.(.^.L.(.K.(.F.K.K.Y.T.F.K.K.(.K.(.(.(.n.: JXJX1 J.{.m.*XxXmXcXnXxX`.}.& 9.9.t.jX  UXUXUXUXUXUXUXUXUXUX",
"UXUXUXUXUXUXUXUXUXUX    i.hXSXIXNX1 b 1 ZXeXeXeXC.|.(.I.A.I.H.'.K.(.K.(.K.K.^.).).K.F.K.K.K.U.[.F._.o JXKX+X}.U._.(.Q.NXMXwXnX X@ % kX0.6.  f UXUXUXUXUXUXUXUXUX",
"UXUXUXUXUXUXUXUXUX    DXe.  BXwXvXZX_ z 1 VX+X).K.U.`.P.L.T.Y.H.`.`.F.).L.Y.(.(.T.T.U.(.(.H.T.F.^.G.L.G S c.*X].(.(.].F.qXNXeXnXSXiX  0.9.DXX UXUXUXUXUXUXUXUXUX",
"UXUXUXUXUXUXUXUXUX  + 6.r.GXMXbXqX0X6 n b N.K.H.Y.T.).!.`.K.).[./.J.].!.G.).K.(.(.(.K.(.K.(.K.(.{.D.XXC %.4 ).C.K.K.(./.H.I.mXwX0XX lXe.i.3.    UXUXUXUXUXUXUXUX",
"UXUXUXUXUXUXUXUXUX  pXgXo 9XnXvXbXwXNX1 z OX0X+X'.).A.) #X}.[.F.P.a = * Y.).T.T.(.K.(.(.T.(.(.(.T.T..X4.-.*.+ $XT.K.[.Y._.+Xl 7 =XGXe e.0.7.jX  f UXUXUXUXUXUXUX",
"UXUXUXUXUXUXUXUX& q.5.  MXbXbXbXbXeXbXbXGXMXVXY.]._.g KXJX  +X(.Y.9  .} } g [.[.[.K.[.{.(.(.(.L.T.{.[.XXH =.=.' T.K.T.L.P.6 v x /.x.GX6 6.5.3.o o UXUXUXUXUXUXUX",
"UXUXUXUXUXUXUX  5.i.B GXeXnXnXnXeXxXbXnXwXnX@XP.F.F.4 JXKXLX. U.).D 4 4 9 S.[.[.(.(.K.K.F.(.[.K.F.K.T.[.M.5 5 (.T.(.T.Y.S.v 2 I.(.L.].GXo t.t.zX    UXUXUXUXUXUX",
"UXUXUXUXUXUXX kX5.dX. 0XmXnXnXmXnXbXnXmXbXbXU.[.U.(.L.-X* IX5 (.[.F._./.L.'.K.K.K.K.(.(.(.(.(.(.T.T.K.(.^.(.H./.(.(.T.Y.x.l ! }.(.E.U.xXAX  sX4.    UXUXUXUXUXUX",
"UXUXUXUXUX#   7.0.+ ZXwXNXeXmXnXmXxXeXnXeX@XH.!.[.[.].!.G. X/./.(.F.F./.Y. XK.K.L.F.G.H.T.[.H.F.T.).G.{.G./.(.F.T.(.[.R.L.oX!.T./.H.J.CXwXI.  fXzX  UXUXUXUXUXUX",
"UXUXUXUXUX  o 0.t.* 9XVXmXbXMXmXeXrXbX%XI.(.K.T.K.T.K.}.(.}.).[.(.F.[.F.'.G.l.c.v.x.x.Z.U.U.(.(.+X; !.[.(.(.(.(.(.K.[.K.[.(.K.K.K.T.K.nXwX&X].o 5.+   UXUXUXUXUX",
"UXUXUXUXKX  kX3.,.JXJXk mXmXMXcXxX].U. XF.L.(.U.[.K.(.(.(.(.(.(.(.K./.G.x.z.x.S.x.b.v.x.( ^.F.G.].4X:X|.{.(./.(.K.[.(.(.K.(.(.H.K.T.K.%XMX'.H.-Xw u.    UXUXUXUX",
"UXUXUXUXX   0.jX  j KX4 vXnXMX&XF.K.L.F.(.(.T.K.K.[.T.)./.(.(.K.{.^.v.Z.Z.x.z.A.A.A.Z.b.b.x.x.v.A.<X2Xl.^.(.(.).(.[.T.T.K.T.(.T.T.T.K.F.I.{.[.n.  q.FX  UXUXUXUX",
"UXUXUXUXX <.  j CX> JXZXwXxXA.I./.U.R.H.H.(.[.K.(.K.K.L.].L.I.J.Z.Z.b.x.Z.h.X ` X hXO 4 ].z.z.x.b.D 4X:X`.J.'.(.K.(.H.I.L.K.(.U.F.K.U.(.(.'./.Y.Y.uX3.  UXUXUXUX",
"UXUXUXUX  1 eXbXmXIXJXZXqXC.L.[.).|..XXXR.'.K.K.K.K./.Z.m.x.v.x.A.qX*X4 $ p.q.6.y.O @.FX`   : tX) ( f.5XC.).U.).(.[.H.F.U.I.G._.}.`.^.[.(.T. XR.].. 6.  UXUXUXUX",
"UXUXUXUX4 m.%XvXtX6 JXVX[.L.(.T.a -.{ _ J.K.F.(.K.K._.v.W z.N.  6 w 8.DX& ;         X @   w.q.iXo ) S.'.U.).I.U.K.[.K.P.I._.{.+XC.@X_.K.[.T.F.F.(.4 9.  IXUXUXUX",
"UXUXUXUX#X/.Y.eX0XCXZXc.Z.F.T.H.7 =.=.Q G.K.K.[.[.K.(.b.{ oX> w.o.o   X o HXLXLXKXHXHXHX      fXgX4 h.z.L.U.(.T.T.(.K.K././.= } | d T.U.(.[.F.}.K.xXsX  > UXUXUX",
"UXUXUX  =XY.OXvXmXwXqXL.R.K.T.T.D.S a.p.W.n.].L.H.(.[._ z.    aX  @ f JXJXKXJXKXJXJXKXJXKXLX    i.+ {.N.[.R.L.!.K.(.K.P.F.D | > D a ).(.(.H.(.(.{.{.. .   UXUXUX",
"UXUXUX  %XY.I.wXmXbXA.J.T.T.K.K.E.J.S.8 C.n.I.L.H.(.(.v.C.w u.jX  8XJXJXJXJXJXJXJXJXJXJXJXJX, o   HXo n.m.}.^.F.[.(.T.F.[.F.] .X^.].^.[.K.K.(.K.(.G.% HX. UXUXUX",
"UXUX  + D R.`.cXbXbX(.^.L.K.T.K.(.'.`.L.`.}.(.^.T.(.G.S.a iX1.  f HXKXKXJXKXJXJXJXJXJXJXJXJXLXo   O u.  S.).'.P.K.[.T.K.[.'.).T.L.P.K.F.(.(.K.(.F.{.|.  .   UXUX",
"UXUX  h % P.Y.bXxX0X_.`.L.K.T.T./. XD.I._.I.L.`.K.[.F.Q   %.B   LXHXJXJXJXJXJXJXJXJXJXJXJXHXKXKX    u.lX  E.`.H.K.[.[.`.n.I.I.P.).].).K.K.K.K.K.K.K.l.      UXUX",
"UXUX. ;.O J.`.nXnXOX[.L.T.K.K.U.K.^.(.(.F.A.[.T.T.K.v.m.e y.  LXJXJXJXJXJXJXJXJXJXJXJXJXJXJXJXKX>   hXr o =XH.L.K.K.K.R.T.I.].L.(.(.(.K.(.(.I.(.K.K.G * PX  # UX",
"UX    dX. H.T.G.T.G.K.[.U.[.[.(.K.(.K.(.`.T.`.(.'.K.c.s gX& uXJXJXJXJXJXJXJXJXJXJXJXJXJXJXKXJXKXKX    8.o }.U.K.K.[.U.H.F.(.}.K.K.K.(.[.[.(.T.T.T.C.E.6 PX.   UX",
"UX    iXB +XT.K.[.H.^.[.T.[.T.(.[.(.T.[.).}.{.).T.F.v.* aX  JXJXJXKXJXJXJXJXJXJXJXJXJXJXJXJXJXJXJX  o 3.. }.U.F.T.K.[.`.[.H.].K.T.F.(.(.(.K.^.K.F.P c.  sX.   UX",
"UXUX. o pXa G.(.`.[.{.W.Y.F.I. XoX XY._.4 ,X4  X`.J.x.. e . JXJXJXJXJXJXJXJXJXJXJXJXJXJXJXJXJXJXJX    e.  G.'.(.[.(.T.U.P.D 8X].I.R.).K.K.[.T.T.J ^ H r.o.X X UX",
"UXUX@ 7X5.  Y.'.|.d.:X{.~.`.M.5 z F _.[.s.,X5X5 U.|.x.      JXJXJXJXJXJXJXJXJXJXJXJXJXJXJXJXJXJXJX    u.. _.F.`.F.(.T.Y.F.4 KXC.I.R.).(.(.[.[.J ^ V.& 1.%.w   UX",
"UXUX@ jXdX,.xX'.p 4Xy H.J.(.=Xz b S _.U.NX% ,X4XS.^.x.  O o f JXJXJXJXJXJXJXJXJXJXJXJXJXJXJXJXJXJX  @ t a n.Y./.[.(.K.H.).S.JX{ ].H._.(.(.K.'.W l.  O 4.4.    UX",
"UXUX  u.  7.W. Xd u _._.). X1 n 7 ).I.(.Z. X>Xs.G.A.c.. 3 + , JXJXJXJXJXJXJXJXJXJXJXJXJXJXJXJXKXJX    i.V.F.Y. XK.(.K.L.}.] JXQ /.L.(.K.K.K.z.~ : aX& 2.%.    UX",
"UXUX  pX. ,.W.R.,X; ).P.I.+Xn c |.H.(.K.[.G.F.I.Y.`.$Xt 1.h   JXJXJXJXJXJXJXJXJXJXJXJXJXJXJXKXKXJX    dXwX`.(.E.T.(.K.P.!.E KXV.).`.T.(.(.(.h.z.X 1.>.1.r.    UX",
"UXUX  i.- ;.$XU.:X, F.L.T.W.n z XX[.K.(.'.(.L.J.T.].OXsX2.sXX LXJXKXJXJXJXJXJXJXJXJXJXJXJXJXJXJXJX  0 dXVX*X^.L.K.[.(.J.].'.4 Y.K.].(.[.(.'.P x.w 1.4.1.8.    UX",
"UXUX  pXw.- $XqX-X{.).T.Y.|.2 F J.(.K.(.T.'.I.`.F.].qXdX3.u.  JXJXKXJXJXJXJXJXJXJXJXJXJXJXKXKXKXKX  0 dXVX$XY.R.(.[.K.A.{.L.(.[.[.(.F.(.^.( P h.1.,.#.1.8.    UX",
"UXUX. ;.2.+ ).@X}.T.U.'.L.P._._.T.K.(.(.'.K.K.L.Y.[.NX0 4.#.    LXJXJXKXJXJXJXJXJXJXJXJXJXKXJXJXJX    :.CXqX@X@X(.'.E.M.D.].].(.I.).`._./.Y U H gX4.1.>.8.  # UX",
"UXUXUX0 $.0 P.S.J.K.T.T.T.T.(.(.H.T.[.(.(.T.K.(.`._.Q.o 3.2.r   JXKXJXKXKXJXJXJXJXJXJXKXJXKXLXKX    h [ NX#XtX|.Y.P.;XC XXG.D.G.[.(.J.W.S / I 4 gX4.4.#.    UXUX",
"UXUXUX  o.w.] R L.[.K.(.K.K.(.(.(.[.(.[.(.[.K.K.[.(.G.VX  8.>.. 6 LXKXJXJXKXJXJXJXJXJXJXKXKXLX@   o . X xX@X0X[.).XX%.*.1  X XU.}.(.+Xl l / I 5 lXr.1.8.    UXUX",
"UXUXUX  3.5.% ~ ) [.(.[.K.K.[.(.(.(.(.(.(.(.(.[.L.F.'.G.AX6 $ dX  hXLXJXJXJXJXJXJXJXKXJXKXJX      yX4.4 %X@X[.(.T.].8 -.=.xXD.K._.Y.2 b 5 x.Y 5 FXq #.# X UXUXUX",
"UXUXUXk O $.= m.E v.(._.'.K.K.(.K.K.(.(.(.[.T.L.K.K.L.F.`.U.tXq + @ o > JXKXKXKXHXHXJXJX>   X - o.i.  rX).K.[.L.H.'.=Xa.-.x ~.H.^.Y.b 2 ( / j.5 % 3.%.X o UXUXUX",
"UXUXUXUX  7.sX4 ~ / }.}.^.K.(.(.K.(.(.(.(.(.K.K.(.K.T.T.F.U.@X. kXX.+   X k JXIXf @     o X ;.t + o vX%XT.[.(.(.L.[.K.p.-.3 L.F.[.].x F U / Y 5 0.$.4.X , UXUXUX",
"UXUXUXUXX ,.@.  l.I [.[.'.K.(.K.(.(.K.(.(.T.[.K.T.T.[.E.^.J.+XNXo B >.t.;.  X         X 6 VXMX0XrXOX#X+X(.K.(.H.).`.J.] q 5 I.(.(././.}.G K P 1 2.1.7X  UXUXUXUX",
"UXUXUXUX  ` #.iXE T ^.(.(.T.K.K.K.K.(.T.K.(.K.K.[.K.(.L.F.}.`.tXxXZXVXAX] $ lX8.3.u.  GX#XtXtX#X=X@X9X`.(.K.U.K.).`.D.Y.n.I./.E./.R.`.R.C.l./ % Z :.    UXUXUXUX",
"UXUXUXUXX h 1.@.. P G.'._.'.|.J.{.T.F.K.T.K.K.[.A.).`./.I.U._.@X%X@X@XtX@XqX* - - * tX@X@X@XQ.@X+XOXU.(.K.K.K.K.[.T.K.K.H.J.T.(.K.[.K.(.U.P K X @.pX. UXUXUXUXUX",
"UXUXUXUX  + o.1.B c.T /.].OX+Xv.|.).L.F.(.(.(.[.J.U.D `.(.'.L.}.@XtX@X@XtX@XW.xXeXOX@X@X@X@X@XOX/.(.K.(.T.K.(.(.{.(.(.(.K.(.(.[.(.K.[.T.U.R ( r +.$ $ UXUXUXUXUX",
"UXUXUXUX$   1.>.#.4 R .X1 JXB.D U.T.(.K.(.K.K.[.}., } ] P./.G.H.U.OX%X@X#X0XN.0X#XtX@X@XOXOX+X`./.'.^.^.K.K.(.K.K.T.T.[.[.[.(.K.T.T.T.(.F.P p 3.r.  UXUXUXUXUXUX",
"UXUXUXUXUX  ` o.V & l.|.PXKXJXJX' H.[.[.K.).L././.U } > n.`.Y.K.T.F.T.I.P.J 1X>X{.|.F.F.K.K.L.K.K.(.K.K.(.L.I._.U.H.^.T.^.[.[.(.K.'.^.P.A.P . 1.  8XUXUXUXUXUXUX",
"UXUXUXUXUX  o 8.1.2.. ~ ].E : JX4 H.'.(.I.^.A.(.)._.=  .B.J.P.K.T.(.).I.J.+X2X2X|.Y.K.K.(.(.T.K.(.(.K.(.!.|.I.D.(.'.F.(.(.[.(.(.(.^.'.L.Y x.o o   UXUXUXUXUXUXUX",
"UXUXUXUXUXf   o @.o.yX4 m.].Y.D R.[.'.[._.A._.Y.L./.' | > .XJ.(.K.K.).'.F.).d 3Xy K.K.(.K.(.(.(.(.K.(.(. Xx l ;X^._./.'.[.}.(.(.^.F.`.G R h.<.    UXUXUXUXUXUXUX",
"UXUXUXUXUXUX    dX:...` 1 F.{.G.(.`._.U.5 c D H.U.!._.= D G.).(.K.(.I.L.U.F.D d.A.^.K.K.K.^.[.T.[.K.H.H.OX2 n 2 { ^.F.G.G.Z.c.z.U R R Y I % O   UXUXUXUXUXUXUXUX",
"UXUXUXUXUXUXUX    #.>.+.r 4 z.^.'.).H.}.l v S T.T.T.T.|.}.{.^.K.[.T.K.[.K.(.(.{.U.T.T.[.K.G.F.L.L.^.G.`.z.( 5 z S R R g.R L x./ J P G ~ S.. X   UXUXUXUXUXUXUXUX",
"UXUXUXUXUXUXUXUX  . #.:...>.@ ^ L /.I.{.z c .XU.T.L.(.).)./._.`.[./.K.(.(.K.F.T.[.K.(.(.T.{.[.U.C.P R R K Y h.h.Y / U / h.I = 9  .1 S.j   >   UXUXUXUXUXUXUXUXUX",
"UXUXUXUXUXUXUXUXUXX B o.[ o.q.  J P G S.c c .X[.[.K.(.(.{.(.{.}.T.H.(.(.(.(.K.T.K.K.K.K.[.K.F.C./ P U U g./ ( K l.W R g.l.> | + u o > ..e   UXUXUXUXUXUXUXUXUXUX",
"UXUXUXUXUXUXUXUXUXUXo #.o.@.o.@.w 5 x.] n b F.U.T.K.(.(.(.}..XC.1 C.K.[.T.[.T.T.{.T.[.(.T.'.[.F.[.c.P T U I U / I Y R ^ E D ' O X...N O   UXUXUXUXUXUXUXUXUXUXUX",
"UXUXUXUXUXUXUXUXUXUX, 3 @.o.o.@.V pX4 G l z R I.'.[.(.Y.XX1 =.*.-.7 +XT.H.H.^.J.P.P.[.L.K.T.(.Y.{.G Y / T U Y l.I L W W ( % B :...o.- . UXUXUXUXUXUXUXUXUXUXUXUX",
"UXUXUXUXUXUXUXUXUXUXUXX 7.0     :.N 3 #XD D k.L U Z.(.D.|.8 &.&.O.N.T.{.(.T.^.+Xp ] (.K.F.R.}.[.I.K Y Y T T T R K ( P h.+ 1...V o.9.. UXUXUXUXUXUXUXUXUXUXUXUXUX",
"UXUXUXUXUXUXUXUXUXUXUXUX  [ M $.+.o.V . P / T T U U P l.E.XXXXU.{.M.^.(.K.J./.&XJXa ).'.T.U.I.H :Xs I T R R T R ( / N.- M ..A M V     UXUXUXUXUXUXUXUXUXUXUXUXUX",
"UXUXUXUXUXUXUXUXUXUXUXUXUX  B ..M X.V ` m./ k.K Q P g.P R I I I R R G K K J l.+XJXa  XA.P.].P.u 1X<XT Y ~ h.l.L Q ( o o.V +.& o.;.@ UXUXUXUXUXUXUXUXUXUXUXUXUXUX",
"UXUXUXUXUXUXUXUXUXUXUXUXUX> X sXM @.+.>.a Q J ! ) g.I Y R U U T g.R U U U U L W KXg ).x.I.z.E s.2X:X^ Y h.P Q ^ !.  o.Z 8.  ,.1.    UXUXUXUXUXUXUXUXUXUXUXUXUXUX",
"UXUXUXUXUXUXUXUXUXUXUXUXUXUXo   . ` o.Z o ^ 5X6Xu F R U U U R T T U R U U I Y Y k KXJ W ~ I Y y ,X>Xz.g.I P ^ H * N @.+ C M N   @ UXUXUXUXUXUXUXUXUXUXUXUXUXUXUX",
"UXUXUXUXUXUXUXUXUXUXUXUXUXUXUX        r 3 B.y d 4X2XQ I Y U I g./ T U U T Y K ~ D g ~ L / Y L L d.:X( R g.b.# r ..V . 3.N o.o X UXUXUXUXUXUXUXUXUXUXUXUXUXUXUXUX",
"UXUXUXUXUXUXUXUXUXUXUXUXUXUXUXUXUX>     - O c.c.i < Q / P P P / / / I K P Y T T R g.R R U P U I L C.h.k.j.. 5.N ..0 w.m >.    UXUXUXUXUXUXUXUXUXUXUXUXUXUXUXUXUX",
"UXUXUXUXUXUXUXUXUXUXUXUXUXUXUXUXUXUXUX  @   . a h.XXz.z.z.l.z.x.x./ ^ P Y ~ U T R g.T T T Y U T / E / 6 q ..M B M ..B .   X UXUXUXUXUXUXUXUXUXUXUXUXUXUXUXUXUXUX",
"UXUXUXUXUXUXUXUXUXUXUXUXUXUXUXUXUXUXUXUXo X   O ;.# .   o + + + O   . S.^ ] R R T T R T T U T U U m.  2.A B V Z B   X   UXUXUXUXUXUXUXUXUXUXUXUXUXUXUXUXUXUXUXUX",
"UXUXUXUXUXUXUXUXUXUXUXUXUXUXUXUXUXUXUXUXUXUX    @ o o.m N m m m m m #.& . z.L I g.g.W U U T Y g.H - #.m o.B O     UXUXUXUXUXUXUXUXUXUXUXUXUXUXUXUXUXUXUXUXUXUXUX",
"UXUXUXUXUXUXUXUXUXUXUXUXUXUXUXUXUXUXUXUXUXUXUXUX  X o + :.V M M N :.- 1 3.3 4 v./ F Q W L ^ Z.. V m 7.$       UXUXUXUXUXUXUXUXUXUXUXUXUXUXUXUXUXUXUXUXUXUXUXUXUX",
"UXUXUXUXUXUXUXUXUXUXUXUXUXUXUXUXUXUXUXUXUXUXUXUXUXUX          - X.t.&.M N M @.0 4 oXXX~.p   ` `   X @   > UXUXUXUXUXUXUXUXUXUXUXUXUXUXUXUXUXUXUXUXUXUXUXUXUXUXUX",
"UXUXUXUXUXUXUXUXUXUXUXUXUXUXUXUXUXUXUXUXUXUXUXUXUXUXUXUXUX    o X X @ @   & X.o.6.t.iX8.- O         UXUXUXUXUXUXUXUXUXUXUXUXUXUXUXUXUXUXUXUXUXUXUXUXUXUXUXUXUXUX",
"UXUXUXUXUXUXUXUXUXUXUXUXUXUXUXUXUXUXUXUXUXUXUXUXUXUXUXUXUXUXUXUXUX#               X     > UXUXUXUXUXUXUXUXUXUXUXUXUXUXUXUXUXUXUXUXUXUXUXUXUXUXUXUXUXUXUXUXUXUXUX",
"UXUXUXUXUXUXUXUXUXUXUXUXUXUXUXUXUXUXUXUXUXUXUXUXUXUXUXUXUXUXUXUXUXUXUXUXUXUXUXUXUXUXUXUXUXUXUXUXUXUXUXUXUXUXUXUXUXUXUXUXUXUXUXUXUXUXUXUXUXUXUXUXUXUXUXUXUXUXUXUX"
};
