/* XPM */
static char *result[] = {
/* columns rows colors chars-per-pixel */
"80 80 254 2 ",

"   c #FEF9E7",
".  c #FEF8D1",
"X  c #FDF5B5",
"o  c #FDF1A8",
"O  c #FCED94",
"+  c #FAE788",
"@  c #F8E17C",
"#  c #F7DD6F",
"$  c #F6D95D",
"%  c #F5D655",
"&  c #F4D247",
"*  c #F2CF3D",
"=  c #F1CA30",
"-  c #EFC627",
";  c #EDC11D",
":  c #EBBD14",
">  c #E9B70C",
",  c #E6B104",
"<  c #E4AB00",
"1  c #E2A700",
"2  c #E0A300",
"3  c #DE9E00",
"4  c #DB9800",
"5  c #D99200",
"6  c #D68C00",
"7  c #D38500",
"8  c #D17F00",
"9  c #CF7800",
"0  c #CC7100",
"q  c #C96B00",
"w  c #C66400",
"e  c #C35D00",
"r  c #C05600",
"t  c #BD4F00",
"y  c #BA4800",
"u  c #B74100",
"i  c #B43A00",
"p  c #B03300",
"a  c #AD2C00",
"s  c #AA2500",
"d  c #A71F00",
"f  c #A41900",
"g  c #A11200",
"h  c #9D0C00",
"j  c #9A0600",
"k  c #960000",
"l  c #920000",
"z  c #8E0000",
"x  c #8B0000",
"c  c #870000",
"v  c #830000",
"b  c #800000",
"n  c #7C0000",
"m  c #780000",
"M  c #740000",
"N  c #700000",
"B  c #6D0000",
"V  c #690000",
"C  c #650000",
"Z  c #610000",
"A  c #5D0000",
"S  c #590000",
"D  c #550000",
"F  c #510000",
"G  c #4D0000",
"H  c #490000",
"J  c #450000",
"K  c #410000",
"L  c #3D0000",
"P  c #390000",
"I  c #350000",
"U  c #310000",
"Y  c #2D0000",
"T  c #290000",
"R  c #250000",
"E  c #210000",
"W  c #1D0000",
"Q  c #190000",
"!  c #150000",
"~  c #110000",
"^  c #0D0000",
"/  c #090000",
"(  c #050000",
")  c #010000",
"_  c #F7F4CC",
"`  c #F5F0B6",
"'  c #F3ECB0",
"]  c #F1E89A",
"[  c #EFE487",
"{  c #EDE072",
"}  c #EBDB5D",
"|  c #E9D748",
" . c #E6D232",
".. c #E4CE1D",
"X. c #E2CA09",
"o. c #DFC606",
"O. c #D9C102",
"+. c #D4BC01",
"@. c #CFB801",
"#. c #C9B401",
"$. c #C4B001",
"%. c #BFAC01",
"&. c #BAB801",
"*. c #B4A801",
"=. c #AFA401",
"-. c #AAA001",
";. c #A59C01",
":. c #A09801",
">. c #9B9401",
",. c #969001",
"<. c #918C01",
"1. c #8C8801",
"2. c #878401",
"3. c #828001",
"4. c #7D7C01",
"5. c #787801",
"6. c #737401",
"7. c #6E7001",
"8. c #696C01",
"9. c #646801",
"0. c #5F6401",
"q. c #5A6001",
"w. c #555C01",
"e. c #505801",
"r. c #4B5401",
"t. c #464001",
"y. c #403C01",
"u. c #3A3801",
"i. c #353401",
"p. c #302F01",
"a. c #2B2B01",
"s. c #262701",
"d. c #212301",
"f. c #1C1F01",
"g. c #171B01",
"h. c #121701",
"j. c #0D1301",
"k. c #080F01",
"l. c #030B01",
"z. c #FFFAE5",
"x. c #FFF5D2",
"c. c #FFF0C1",
"v. c #FFECAA",
"b. c #FFE897",
"n. c #FFE483",
"m. c #FFDF71",
"M. c #FFD95C",
"N. c #FFD44A",
"B. c #FFCE35",
"V. c #FFC71E",
"C. c #FFC207",
"Z. c #FFBB00",
"A. c #FFB300",
"S. c #FFAA00",
"D. c #FFA100",
"F. c #FF9800",
"G. c #FF8F00",
"H. c #FF8600",
"J. c #FF7D00",
"K. c #FF7300",
"L. c #FF6A00",
"P. c #FF6000",
"I. c #FF5600",
"U. c #FF4C00",
"Y. c #FF4200",
"T. c #FF3800",
"R. c #FF2D00",
"E. c #FF2200",
"W. c #FF1600",
"Q. c #FF0A00",
"!. c #FF0000",
"~. c #FEF5E0",
"^. c #FEF0D4",
"/. c #FEEBC9",
"(. c #FEE5BB",
"). c #FEE1B1",
"_. c #FEDCAC",
"`. c #FCD7A4",
"'. c #FCD19E",
"]. c #FCCB96",
"[. c #FDC590",
"{. c #FDBF8B",
"}. c #FDB784",
"|. c #FDB07D",
" X c #FCA875",
".X c #FCA06D",
"XX c #FC9966",
"oX c #FC9161",
"OX c #FB8A5A",
"+X c #FB8354",
"@X c #FB7C4F",
"#X c #FB7449",
"$X c #FA6D43",
"%X c #FA6640",
"&X c #FA5E3C",
"*X c #FA5737",
"=X c #FA5032",
"-X c #FA482D",
";X c #FA4128",
":X c #FA3923",
">X c #FA321F",
",X c #FA2A19",
"<X c #FA2315",
"1X c #FA1B10",
"2X c #FA140B",
"3X c #FA0C06",
"4X c #F50500",
"5X c #F00000",
"6X c #EA0000",
"7X c #E30000",
"8X c #DD0000",
"9X c #D60000",
"0X c #D00000",
"qX c #CA0000",
"wX c #C30000",
"eX c #BD0000",
"rX c #B60000",
"tX c #B00000",
"yX c #AA0000",
"uX c #A30000",
"iX c #9C0000",
"pX c #960000",
"aX c #8F0000",
"sX c #890000",
"dX c #820000",
"fX c #7C0000",
"gX c #750000",
"hX c #6F0000",
"jX c #680000",
"kX c #620000",
"lX c #5B0000",
"zX c #550000",
"xX c #4E0000",
"cX c #470000",
"vX c #410000",
"bX c #3A0000",
"nX c #340000",
"mX c #2D0000",
"MX c #270000",
"NX c #200000",
"BX c #1A0000",
"VX c #130000",
"CX c #0D0000",
"ZX c #070000",
"AX c #010000",
"SX c #FFFAF0",
"DX c #FFFAEA",
"FX c #FFFCE3",
"GX c #FFFCDE",
"HX c #FFFDDB",
"JX c #FFFEF7",
"KX c #FFFFFF",
"LX c #F6F6F6",
"PX c #F0F0F0",
/* pixels */
"X   5 {.W.NXFXFXSXFXZXuX0.AXSXuXuXNXcX5.M DX^.).yXcXfX2X).AX>XbXMX-.xXHXNXFXDXGXNXLXaXNXfXDXDXFXPXPXPXFXSXLXLXHX4XZXKXcXN HX{.ZXcXNX^.ZXcXFXAXVXNXzXxXSXZXHXSX5X",
"k HXAX^.^.Q.].>Xz.l.Y.(.z.z.Y.0.&.-.h uXT.Y.^.).).:X^.,X2XfX4XfXuX4X,XaX).aX0XU (.(.>XfXfXfXyXBXyXsX1X:X4XQ.[.].Y.^.2X>Xp Q 0.O.=.9.-.z.9.9.k.h.W.M.T.4Xc.Z.p.M.",
"8 2X>X].].:XW.>X(.c.R.).W.x.l.z.l.Y.-.z.T.Y.)./.yXoX].1X,X:X<X&X:X>X0X2XsXAXgXO :XkXkXiXgXyXOXE.,XhXyXE.W.z.(.~.].yXz.uXM % o.l.R.x.C.XX).R.M.c.G.r.h.~.D.wXz.2.",
"G.~. X,X&XXX/.!.W.(.R.c.c.l.l.^.W.Y.g.c.E.^.<.E.oX(.$X1X:X.XpX0XdX2XsXqXkX8X,XmXsXkXsXkXiXOX.XkX1X8X<X/.,X:X(.C.uX>X^.^.v 5.9.Y.C.R.W.x.c.x.>.>.~.G.k.W.~.2Xt._.",
"y.pXXX:X/.&X/.c.W.Y.Y.W.W.R.Y.Y.Y.W.l.M.>.x./.W.8XsXiX1X8XyX1XsXpXgXxXNX8XBX0XAXY VXhX8X1XXXoXgX1X<X&X,X].,X$X/.oX8X,X(.T.T.z.x.oXx.:X,XE.C.R.C.c.F.~.].(.<X5X5.",
"$Xg./.oX/.(.:XoX(.^.W.l.^.R.x.l.x.W.9.T.l.x.(.sX,XgXsX8X,X8X1X2XpXxXpXgX3XgXkXbX^ 8XjXiX(.&XsXsX1XQ.>XV.$X(.<Xx.OXXXY.d 5.9.c./.oX:XoX/./.XXoX!.&X,X0X~.`.~.].7.",
">X,X/././.E.oXoX:X/.R.l.x.Y.W.E.R.Y.c.yX^.!.,X(.).gXjX8XXX8X1X8X,XpX0X<XkXBXjXBX(.,X,XOX/.&XMXbX,X~.XXj.:XW.V.XX8X/.(.#.^ j.(.W.yX/.XXG.sX8XC.W.c.G.C.!.4XM.M.6.",
"0X~.XX.Xl.R.R.).).:XR.l.-.l.l.-.R.<.=.8X>XD.2X!.).>X8XXXXXsX7XiX2X0X1XyXAXkXBXkXsX0X&X.XXX1X0XsX0XhX0XXXg.].8X~.<XC.=.> c 4X4Xl.oX>XXXl.XXXX!.C.=.~.C.Z.6.M.M.].",
"o.oXOXOXE.E.x.<.).E.(./.W.R.*.x.:X/./.2Xk./.W.G.(.>.C.oX,XsX:X1X:X$X0XBXBXBXkXhXC 8X8XiX,Xj. X&XmX0X0X<X1XG.D.*X&XR./.n 6.Q.^.dX(.Q. XV.,XbX(.!.~.j.XX<X%XN.r.z.",
"g ).Y.x.E.OX.Xx.x.Y.:X.X/.x.(.(.g.g.c.h.!.~.c.~.C.y.j.XX&X1X1X,X1XqXdXwXwXhXhXjXwXhXiXhX1Xl.G. XAX&X X+XB.,X<X$Xc..Xx.4Xd h.W.c.XX&XBX2X1XdXgXD.bXQ.G.~.Q.7.Q.r.",
"% Y.l.x.E.E.E.oXC.).E..X8X7XB.W.=.c.z.Y.W.D.C.&X0X&X(.oX.X(.4XQ.pX<XmXsXBXmXBXkXbXhXhXkXjXBXG.!.hXBXXX!.;.B./.&XD.j.Y Q.b g.].(.B.XX1X7XMXc.~.W.C.D.y.n.].%.4X! ",
"&.-.-.<.,.E.oX<./..X!.!.XX/.!.XXg.l.z.T.g.>XH.V.0X0XpXoXsXpXW.T.^.bXhXsXwXhXsX.XdXBXjXkX&X1X8X:X,X<XXXXXB.G.&XXXM.+.!.$X9.g.].!. XG..X6XXX&X!.~.XXZ.v.M.W.`.k.h.",
"^.).Y.x.E.OXOXR..XE.x.c.!.C.W.W.c.=.=.h.M.C.*XD.<X$X.XsX1X(.c.>X~.gXsXjXmXjXhXwX0XBXjXsXbX XR.XX>X(.jXD. XG.j.G.k.B.l.5.#.g.XXBXwX6XOX6X,X&XsXXXXXn.Q.M.r.%X&XM.",
"l.W.OXyXE.R.E.<.<.x.l.Y.l.R.g.j.W.W.r.(.M.,X*X>XQ.$XOX,X<Xg.W.T.<XsXBXsXsXjXjX,XbXsXjXhXBXmX,X2X8XsX,X$X6XXX>.V.k.+.y.(.o.D.#X7XwXB..X XsXsXbX0X0XF.n.#.Q.&X$Xb.",
"Y.l.E.oXY.l.R.<.<.<.-.&.l.,.^.C.D.c.W.M.h.].M.>X<XyX&X$Xg.Q.h.z.].<X8XsXdXjXkX7X2XBXsX8X0X<X8X,X2XoX8X&X!.!.C.C.$.) $.r.' $.&X X&X~.!.XXXXG.9X2XQ.t.M.F.6.H.0X$X",
"-.l.x.Y.R.*.Y.*.Y.E.&.&.^.@.Y.:X!.7XG.h.].%.Q.dX>X3XN.F.].^.M.D.W.dXgX0X0XXX,X<X<X8XhXmX<X8X&X~.Q.0X<XD.,XwX.X&X X.XW.r.>.d. X&X8X&XhXD.y.7X!.j.b.r.k.6.G.n.`.n.",
"E.&.,.<.-.l.=.c.R.l.=.W.(.l.l.=./.XXr.>XM.Q.pXM.9Xk.l h.b.6.h.M.G.<X%X1X1XhX&XW.&X8XjX8X>X0XXXD.!..X<XvXbXXX!.V.V.6XD.] W Z.j.&X%Xy.7X&XXX&X!.j.Q.#.y.r.n.Q.G.D.",
"E.-.*.*.-.@.9.Y.Y.Y.*.l.x.c.W.l.l.j.M.O.v.6.`.3., W 5.h.h.h.g.C.Q.1X8XsXhXgX$X>.k.!. X6X0X&X/.(.sX,XXXwXG.~.y.y. X XN.~ t.t.XXQ.~.~. XwX7X<XM.M.W =.%.%.j.k.h.' ",
"Y.9.-.z.o.o.&.,.,.l.g.E W.c.h.R W.M.%.N.. 7 h.Q.Q.#./ b.O.O.O.6.=.~.>XW.R.(.c.E M.,X!.hX!..X,XD.r.=.8X9Xy.0XD.{ i.. 7 @ S $.!.g.;.=.Z.k.~.h./ 2.W O.7.%.r.t._.h.",
"O.O.. . % p d p M N N & 4 c 4 W n W k n X . r n B U Q / N j % b T @.#.c.=.I 4 + o k (.6.f S b b f / i 0 & o - 2 - f 3.@ 4 6.b b W v i # # j = 5 v j @ d a 1 # 1 ",
"N M.z.^.z.xX5XuXz.9._.uXaX4XaX[.zXNXNXcX5XcX=X5X].h.NXzXzXMX4X2X3XdXaX$XQ.>XMXHXz.{.DXZXkXgXgXAXMXNXGXBXbXMXAXbXmXXXMXlXv 5XzXNXzX_.0.NXlX5X5XSXaX[.{.n.2X%X4X4X",
"W.C.:.,.g.>.r.c.l.-.9.,.9.j.g.>Xj.j.H.3XD.t.3.5.b.N.N.N.I.n.H.wX X$Xk.Z.D./.&XVXSX(.jXiX6X.XW.R.R.Z.D.!.2XfXNXBX6XB.l._.R r.G.q.r.] t.5.M.n.%.%.%.=.j.;.!.G.Q.<X",
"&.M Y >.j.M.^.C.l.=.l.c.Y.c.^.j.D.>Xk.*XF.t.N.Q._.Q.M.h.Z.u. X0X&X XG.V.u.e.G.`.9X7XjX.X XwXB.:.=.C.^.1XsX0XdXbX X Xk._.7 >X$Xu.n.3.] N.v.k.;.r.k.Z.G.d.D.G.&XD.",
"R E =.k.j.c.l.g.l.g.c.c.g.R.C.G.$X!.M.W h.H.%X_.F.Q.7.*XD.%XD.D.>.>.XXy.Z.C.%.7Xh.hX8X6X.XB. Xd.XXC.(.XXaXbXaXwXZ.&Xu.[.6 t.y.k.] 3.4.S.3.y.r.k.%.3.q.D.Z.$Xy.D.",
"^ &.#.c.k.D.6.M.c.%.g.>.z.V.XX7X&X!.%XM.6.`.@Xt.n.#.k.6.H.c.g.j.V.j.D.C.D.D.XX$Xn.sXjXOXB.G..X.X<. XXX XaXBXqXbXBXS.B.'.& t.~.3.5.] P.a.n.{ h.k.6.6.t.y.u.r.k.V.",
"O.E c.%.Q.D.k.k.k.Z.k.>.!.Z. X X~.H.y.h.5.F.7.n.U F.u.r.y.$.>.;.r.r.D.g.r.r.C.4Xg.^.XX6X.XE.6X.X;.C.~.!.+XwXqXaX7Xd.q.F.1 3.] 7.7.P.P.s.@XF.n.t.D.k.@.R =.3.r.{ ",
"5.3.T g.y.g.D.y.G.$XC.;.!.].$X].+X+XP.b.k b.5.7.S.Z.%.%.z.j.%.r.' ' $.>.D.hXdX~.gX8X XG.V.G.y. X&XwXD.9X0XwX`.F.wX X{ n.6 ^ ] 7.2.'.4.4.a.a.u.Z.y.t.Z.j.%._ y.Q ",
"5.#.6.@.k.u.~.9X~.V.Q.~.~.D.F.%X3X%XD.b.N.b.t.t.k.a.j.y.%.>.M.r.k.$.;.y.H.*X$X2XS.&XhX Xy.V. X7X7XvXu.9X7XwXdX+Xa.e.u.I.7 / 7.] M.p.s.P.p.t.q._ %.3.h.6.U ] 6.T ",
"5.O.N.k.Q.G.H.D.H.Z.y.t.Z.=.t.F.N.] ] 6.b b.H.#X@X%XXXZ.!.g.!.r.%.!.V.!.G.wX X%.k.&X&X#XH.H.<X+X9X+XzXwX*Xk.*XvX{ Z.S.b.@ O.^ F.P.u.s.a.` s.s.Z.3.t.6.k.k.r.=.6.",
"Q.5.@.k.Q.D.~.k.r.' #.q.;.q.] N.3. .b._._.@XqX-XH. X;.G.u.l.$.C.C.B.!.!.C.;.g.6.5.XXD.&X+X<XH.`.V.H.Z.` @X*Xw.F.w.@XP.3.5 2.Q.b.n.-Xs.+Xa.t.Z.H.*Xy.%.G.q.%.k.y.",
"^ >XW.%Xv.7.b.5.7.Q.Q t.r.r.t.a.~ 5.7.{.z @X9X*XV.~. X,X~.$.y.G.k.j.C.!.j./.(.6.6.R.j.;.~.y.Z.Z.u.a.H.t.-XU.I.A.| K.A.b.4 _.].{ @X-Xs.H.n.w.u...q.y.k.k.$X;.k.;.",
"#.%.u.k.;.G.6.z.7.7.m.t.` a.a.2.7.7.7.b.'.rX9Xk. Xe.V.+XwXXXy.:.r.$.XX>.*X=.6.D.2.[ Z.0XZ.7.v.9XZ.d.S.%XK.;XL.s. .a.a.5.' N.a.~.`.K.i.}.A.w.I.w.n.y.{ q.u.Z.u._ ",
"6.=.y.u.D.&X~.F._.m.} } p.2.3.Q 2.7.7.b.'.-XqX0XG.+X+X#XZ.V.G.r.' @.>Xr.=.%.k.<Xb.u.$XG.y.r.F.`.S.+X#XP.| L.J.U.3.F.%.5.k n A.L.f.U.U.U.K.f.4.i.a. X7XZ.&X+XH.}.",
"#.^ G.j.k.r.%.^ `.'.U.J.2.v.5.v.N.7.W lXm.s.}.d.H.H. XG.Z.k.`.!.~.y.D.r.,X$X>X[.2.&X;.;.;.r.{ ;.q.S.L.I.X.8.i.H Q.`.h.b.# p.K.X.X.X.| L.f.;XK.L.}.S.Z.9X#X#X@X9X",
"h.(.~.D.k.' y.r.n.S.X.J.b.1.5.8.2.3.t.[.p.a.f.#X X7X7X+X&X$Xk.k.$XF.k.%.z.;.u._.7.#XG.V.j.e.;.y.e.S.U.A.m.| w.v.Z.n.F.m.m i.i.s.f.i.f.|.}.I...K.}.}.;X X`.+Xa.S.",
"=.%.@.~.' t.@.k.t.w.f.i.| 7.7.P. .7.b.8. .i.e.H.y.~.G.k.q.%.%.$.' #.%.3.6.6.r.%X2. X+X XXXG.r.q.Z.I.-X=X@XP.4.T { ]  .K.r i.J.i.K.L.K.f.L.@XI.A.L.|.}.}.L.+XZ.9X",
"O.g.g.h.] h.@.a.A.P.s.K 2.2.v.P.7.v.7.U.N.p.t.5.r.;.%.S %.' U U N  .] { %.H.t.n.2.&X0X~.H.d.d.}.;X;XVX#X=Xt.P.'.s.| ..5.r 8.K.8.K.s.4.`.w.u.+XL.f.L.-X@XA.w.]  X",
"M.r.k.r.^ q...^ w.s.H m / O.2.| 2.5.7.5.5.l 3.#.! T R ' S ' ' E E b ) k.G.&Xu.F.] I.#XP.+XS.S.=X-XX.] #X|.rXU.i.p.p.m.v.X 8.p.U.f.L.K.}.L.Z.t.` [ ;.q.s.w.f.A.U.",
"m.k.r.=.^ G H p.} m } 5.1./ ~ / t.7. .N.r = B m 8./ T N N N v U b N a h.r.n.u.I.] A.F.F.P.$X~ rXA.m.5XU.F.=X>Xb.4.H } } = / 3.p.L.vXK.f.L.w.t.K s.] b.0.p.3.4.-X",
"q n #.U k k x l u Q v N 5 5 @ O 3 O X * X   . j B 1 v # $   X X 7 1 . o o q o 6 + q 7 d O.Q o $ t H 1 k z l 7 t l m l : = : n 7.~ K J K : t t 9 u r o   + : : @ ",
"= v 5.2.5.eXlXlXeXcXNXlXlXP.n 4.3XSXlX1.Q.4XZXbX^.uX5XN._._._.5.5.h._.B FXDX5 + DXGXVXSXAXNXAXZXLXCX{.NXzXLXCXtXGXeXnXnX'.LXGXLXDXCXlXQ 8.KXLXJXCXCXGXGXvX[.0.  ",
"r.=.n.p.N.m W 0.p.~ } 5.t.`.-XA.3.{ T n.&.9.o.E g Y g ^ 5.2.Q ^ #.M.k.<XF.gX>X~.rXw.m.p. .] v.m.8.K.X.~ p.U.P.A.J.K ..'.J.=X3XeXK.I.+X9XzXH.Z._ #X..|.U.n.*XrXt.",
"/ #./ H H } t.b. .| | 4.t.J ] q.' j.q.h.d U b g b f Y [ T %.' y.t.5.b.Q.N.F.%XSX^ h.t.m.2.6.3.t.| |  .4. .%XqXa.X.~ ` p.3.V.+XF.3.`.q.t.*X-Xw.w.f.X.L.}.K.H.F.vX",
"/ n K r A  .~ ~ m u { ] .._ 4.{ E =.q.v 9.] D U %.#.] ..{ %.r.] ] #.Q.N.I.%X1.zX5._.t.5.F.p.n.U.m.'.p.b.D.'.3.` i.8.6.F.%.V.,X X9XzX`.A...-Xn.3XF.i.s.|.U.A.P.F.",
"8.x H ..| X.s.m ] 6.' ] ] { ....%.!  ./ Q ` ] x J  .4.}  .7.3.! W %.z.%Xv.5.M.{.0.^ 3.F._.S.w.I.=XA.`.n.%./ u.n.P.{ k.7.6.Y G.~.7X7X6.u.A.%X`.t.BX@X` }.U.+Xt.`.",
"B W  .w.` ` ~ ~ %.C R #.T t...H ~ ! ` b.} 4.H J K X.w.7.] w.` ` T ' $.$.Q.H.b.b.  #...dX*X-XU.A.p...%.M.Z.@XP.X.f.I.6.2.=.y.E Z.B.6X&X#X9Xa.H.H.+X0XvXrXn.q.zXP.",
"8.} ..` ] W  .Q -.C C +.R *.r.~  .! D / ] P A u ~ ~ a...] ] ] G G ] $.Y y. X#X`./ m.-XU.#X@XN.5.n.s.@Xt.` | w.w.a.s.X p 8.X.t.q.%.e.H.+X$X9X%Xb.%X`.w.| } w.n.lX",
"| J.s.H ..u W ' *.C o.s R o.T b w _ ^ / {.z.%.! _ { { 3.{ ` [ T ^ ' j.:.y.B.Z.! 7 _.p.t.7.A.3.F.`.F.;XA.}.` | w.{ | p.. ~ w.{ r.S. Xy.H.G.dXF.m.rX'...m.4.qX`.=X",
"a.U.m.w.} D U ' < > h M h g I E V $.f 5 o.o.I ,.>.$.y.%.{ ;.;.[ ' k.j.*.XX X_ 2 7./ 5.] F.u.*XqXI.@XZ.}.#XS.I.e.y. .f.F.] u.q.%.' e.e.#XG. X+Xq.u.H.F.5.2.m.-XeX",
"w.i. .H m A D a a h h @.h U s R ) >.' T.N M E s &.:.>.:.$.[ [ E @.c.,.8XG.k.F.Q m '.t.t.] d.+XS.I.S.S.d. XZ.X.q.3...i.7.D w.{ S.u.{ u.V.V.[ S.#XL.F.W F.U.7.4.'.",
"w.i.K | / J S a s C E #.I r.G.G.y.G.Y ^ O.W ^ @.&.h :.<.*.*.Y E E :XC.x.j.V.`.. N.p.Z.u.Z.S.#Xe.a.d.V. XZ.S.{ L.w...t.O.^ t.n.q.P ` D r.j.' y.Z.f.^ / v.J.rX3X_.",
"K...` ~ P u D T C I s M U ) ' ) ) ( ;.%.U #.W / #.o.<.+.*.R.,.E z.h.=.C.V.M.p.2.8.m.i.i.A.Z.H.a.e.A.H.d.e.Z.S.d.i.e.Q._.w.{ ] q.] ! F U %.c.[ ' I.s.p.p.4.0. .} ",
"P.5.] 3...| ` e { q.=.:.&.R R R $.;.;.T ^ r.#.n M -.c.R.,.+.+.R.Y.&.c.D.Z.t.t.8.} n.`.L.S.H.u.D.H.w.D...[ q.G.e.q.u.2.N t.F.] ' ! ^ ] T W q.%.' u.`.U.I.N.5Xv.7.",
"4.4.2.A q e Z z _ { ) $.Y Y :.) f ! T W ^ y.U I o.W.k.r.C.l.l.E.l.c.k.D.p.n.4.r b.n.e.}.I.u.t.F.] { ] G q.F V q.X._ =.k v.%.] t.t.] t.q.3.T ( r.( r.q.u.I.#XS.@X",
"8.K t.J _ S D A 2 T ;.[ [ w [ V.6.{ #./ f $.S I s &.2.2.2.#.6.,.*.b.3.H.F.] 7.7 7.A.[ G _ e.e.n.u.*Xq.( [ Y ( ;.T F %.B ^ O.S %X%X3.s...w.3. .n.Y k.u.3.e.w.I.3X",
" .p.K J ..[ 3.t.w.S D Y ( ) :.( U z 6 T 6.%.%.=.g E E %.] W E E O.h.3.n.#.M.t.- 4.u...u.6.] n.I.n.t.S.k.r.' %.#.[ >.r.W Q &.< / ] S.H.[  .| w.! ! M.#.Z.a.] 6.a.",
". ] ` ` q.A G X.u.X.D s M U ~ ' ^ b s n D _ ] T 3.S T @.E U O.p./ M.2.M o.6.6.k h.t.] T ] ..J u.w.w.a.D ] a.a.w.e. X0X1./ 6 z.t.] #.n.t.p.w.X.X.] t.F.A t.F.6.q.",
"#.] F _ q.{ G [ q.[ r.I M k.3.D D f A ! t !  .`  .H A x f @./ 7.#.^ E R *.g.g.4 b j.R ) %.%.r._ A.S.{ u.S.H.u.Z.;X X&X5.D T q.' %.( r.k.u.{ ` w.i.I.{ n.w.] ] 5.",
"& U k A f G A D f b ! s I ' ( 3.] x 2.r u D H H ~ K m l / l H n N b ^ E @./ O.O #.@.=.=.*.E ' ] ] ] q.Z.F.W v.`.9XV.r.n / ' ' f %.$.^ ] / 6.F.v.A.t.t. .F.F.m.. ",
"  j 3 q 7 u ! x n k k i 5./ d l 7 n k X   5 = @ r = = $ o % = * 5 @ o + # . = X   & + o o o o 5 = $ r 3 1 3 # # 2 1 4 X X 1 p 6 i i k b n 4 + = 7 n d k W m U . ",
"7.=XN.3.D.! D.n.H.n.Q.].uXqX[.b.P.m.P.B v rX=Xv.} 8.} x } 7.0.0.P.p.b.=X>X5XrX@ 2.Q.Q.xX>XQ.`.F.J.=XnXbXzX*XS.bXF.MXNX5 Q N.5.h._._.Q.4XcX>X>X0XcXn.qXrXrXzXAX* ",
"^ n d e V w 0 w ; Z b b 7.H K ..t.A .. .W t  .H ~ 4.H l ! ]  .3.] J 2.w.D W v r O.U #.@.R 0 E $.Z.H.u.Z.u.H.Q.q.{ ' ;.7.3.Y U ] ` ^ D U D D A G J J y A J k.%X#.",
"6 T %.F V w F F _ F e f ' ! H ! H A A n x | J J : A t H ` ! n.{ t.4.w.w.~ 2.5 5 c I E ' b 6 E ' q.e.I.y.k.{ D.S.k.r.T c h.6.r.v.w.] ! o.T z U ! ' T z ] w.z.6._.",
"> S Y s V Y Y Y Y V Z g Z D 6.G ..` x / b H ] _ Z _ ! ` J ..a.3.] { 5.4.4.n k . c s e ^ U M I [ { d.i. ...4.A.a.r.q.W N A ] 3.K .. .b ^ M ^ %.^ ( ( S 6.@.r.@.#.",
"k k d z f < < V s g S ' S < g e._ t D r W ! 6.D z S ] J w.! ..D.%.] r.W n W f + d a 7 d , < b U [ e.X.e.Z.w.a.w.k._ e.c Q ` X.X.i.w.T 0 U S Y ] %.@.k.F.] ' W a ",
"g E D S e d V 0 e 8 z ; 0 g E b D z ~ B Q / W ' E r.U e T ! T w.q.u.U D b 9 > o 4 f D z ^ S @.Y C.$.e.;.y.u.{ ;.;.;.{ j W u.e...` q.S 0 g F Z V F G F t.r.r.%.n ",
"w V ( w 8 F F f e w e 8 Z A #.#.' ] 2.l H U b b W D ! ' ' S { Z.Z.[ U f 6 6 > o 4 , < f a V T $.$.>.e.) %.%.q.q.r.' T v A _ q.e.P _ F E { { 3.e G G [ a.t._ ^ ! ",
"e 8 8 Z Z Z Z Z F V e 8 ` _ _ T z  .] v W k b b S b D $.T Y U Z ! f a s < g 6 + 4 S s s a V Y R.-.&.;.U r.:.>.P S $.U 5 N b G K G H b r.q...q.F [ X._ { ] ` A 7 ",
"e 9 y e 8 Z P Z G G P _ J P ]  .D x t 3 7 A z q 0 6 6 V Y ' %.n S z d p a < > o 6 6 I I < 0 s h &.E R $..X) Y $.T F S 7 > p 6 A z ! T ) [ [ [ [ T { a.~ G ..e k ",
"r K 9 2 e 9 A | u X.K u u H  .J ~ ` | t x z z 2 2 z g S E D a 6 d d a a < s > # & - < 6 0 f $.Y o.=.T C x.<.+.C %.s b j c > 6 9 y S S U V [ [ r.T ! q.{ ` ` t W ",
": | x ~ 9 ] P ` J A x 9 D A D ` A | [ 3 q q - 0 , 0 Y ' G ! z D k , p a 6 2 # . # 8 s U U b Z 0 b U W ) ) XX<.C @.< g v 1 > 6 ^ D ] ] ! F D F ) ) T _ q.L q.] e ",
": K K ` ` _ 8 Z ` F 8 e Z y w { F y ; u 2 q 9 8 z T w _ Z ~ 3.D n e < > q 6 x . i 0 , < f 7 S q 6 ' 6 < ;.V.) ) d I 6 c 4 6 k e _ Z ] ! 3.#.Y T 0 6 a 0 , e z q ",
"9 A y ! Z e T [ G F 8 Z ` 9 Z 8 ; 2 - v : e G e z ! w A f A U ` A ] x e Z z q o 7 9 _ V Y I 2 8 a < f D W S d < d s < 6 6 b w z u z 8 e Z _ u._ _ Z e w.0 e 6 O ",
": y D Z D W J Z _ Z ( L A G e w q - S # + q e ; 2 z ! z A b f z 2 D e k 2 H 2 . 1 ; Z f ; z e V F e ; > Y T 6 1 6 0 g 7 i E ^ G D A Z Z A 2 ; T _ F ; _ _ [ n . ",
"6 - 1 6 g n n A J 9 w [ Z Z 8 ; T 3 ! n # q , 8 9 2 A [ z e a k 2 q 2 1 2 z 7 . O > 0 8 ] t e _ 8 ; 0 F g S 6 # d i & * b M Z y D { D D x z F f 8 G e e A G D . ",
"> - 1 < d e w f e A e y A J _ _ A J z j O 1 : 2 9 y _ J D z 3 y D 9 J ! { z y . # # & S e J G D F ; V R T 6 7 7 # & $ % & a Y ] { ' ! ` x q 0 e e P y 8 q ] G  .",
"7 1 2 , f g 8 2 8 9 9 : x ~ z P 9 y 2 7 $ 3 f e ` | ` G G y u J 9 G ` e 9 f z o # @ 4 & - ! ! A ' F a , , 6 # > N i   @ 1.f S T G J G z A D d b L G ! q 9 Z z o ",
"A 3 9 A w.9 ! 0 e e ; , - 2 x x Z 2 1 H 5 q A ` A A ~  .G D S D y K A 7 z x D . j 7 3 O 1 2 8 D ! ` A 3 2 - 1 n 1 # b 1 k & 6 q e D D S z k D w F F F F 9 8 - q ",
"7 7 t Q d H + q 2 e 0 2 2 1 # # # & 1 5 @ = 3 k : : H H J J D n J A 7 d 7 # &   * j # 7 k # q t k 1 : 3 5 : o $ = . = + 2.j @ 4 k m i 1 1 5 1 q f f b n ] # # x ",
"$ 1 O i i # 5 5 1 1 O 1 7 # o $ + . X .       .   . .   O * i 7 1 : 3 > + . .     o +   . o . o r + . . O @ . . X         . + X + . # # o o O o Q & c 1 t 7 1 o "
};
