/* XPM */
static char *result[] = {
/* columns rows colors chars-per-pixel */
"80 80 178 2 ",
"   c #030303",
".  c #0A0304",
"X  c #040A02",
"o  c #0C0B04",
"O  c #04040B",
"+  c #0A0108",
"@  c #07080B",
"#  c #0C0C0B",
"$  c #130E05",
"%  c #170A0C",
"&  c #0C1008",
"*  c #1B1304",
"=  c #181008",
"-  c #040210",
";  c #0A0512",
":  c #08091A",
">  c #100C1F",
",  c #151515",
"<  c #171919",
"1  c #1D1D1C",
"2  c #171617",
"3  c #241503",
"4  c #20190A",
"5  c #201E04",
"6  c #341E08",
"7  c #1B2417",
"8  c #262105",
"9  c #2A2504",
"0  c #2B2809",
"q  c #2F2609",
"w  c #332606",
"e  c #332B04",
"r  c #373002",
"t  c #3B3203",
"y  c #3D3F09",
"u  c #0F0D25",
"i  c #0F0F2D",
"p  c #1B1721",
"a  c #0C0E31",
"s  c #0D153B",
"d  c #121538",
"f  c #261F2F",
"g  c #1F2020",
"h  c #232323",
"j  c #2B2B2B",
"k  c #22232B",
"l  c #2E302E",
"z  c #343434",
"x  c #3A3A3A",
"c  c #503908",
"v  c #4C400A",
"b  c #574B08",
"n  c #564D07",
"m  c #534818",
"M  c #5F431B",
"N  c #625B04",
"B  c #685D07",
"V  c #696304",
"C  c #736A09",
"Z  c #74660D",
"A  c #7D7308",
"S  c #686010",
"D  c #40443C",
"F  c #1A1847",
"G  c #141245",
"H  c #1C2058",
"J  c #383541",
"K  c #1F2263",
"L  c #26276E",
"P  c #2E2F7E",
"I  c gray25",
"U  c gray31",
"Y  c #4D4752",
"T  c #505050",
"R  c #645E5E",
"E  c #64605D",
"W  c #626363",
"Q  c gray47",
"!  c #A13416",
"~  c #8A5906",
"^  c #847B08",
"/  c #9B6E16",
"(  c #837718",
")  c #A46B05",
"_  c #B57506",
"`  c #B7760E",
"'  c #BA760D",
"]  c #B5790F",
"[  c #B9790F",
"{  c #A67A14",
"}  c #A17119",
"|  c #B67710",
" . c #BA7614",
".. c #BF7912",
"X. c #BC7C19",
"o. c #BA7418",
"O. c #C27B0A",
"+. c #85820A",
"@. c #8B8208",
"#. c #94890A",
"$. c #979107",
"%. c #9A9409",
"&. c #A2910B",
"*. c #A29719",
"=. c #B1AC07",
"-. c #BDB30D",
";. c #AAA119",
":. c #B9B214",
">. c #C2BA0E",
",. c #CCBF1F",
"<. c #C7BB18",
"1. c #C6C302",
"2. c #DDD30C",
"3. c #C9C312",
"4. c #D2C512",
"5. c #D0C618",
"6. c #D7CA12",
"7. c #DCD410",
"8. c #EDDE05",
"9. c #E3D50D",
"0. c #E6DD0C",
"q. c #EDDC0D",
"w. c #E6D804",
"e. c #F2DD0D",
"r. c #F1DE04",
"t. c #ECD512",
"y. c #EEDC12",
"u. c #E0D518",
"i. c #EDDC1A",
"p. c #E6DB1A",
"a. c #F0DE12",
"s. c #FADE15",
"d. c #F2DE19",
"f. c #F8D617",
"g. c #EDE20C",
"h. c #EFE50A",
"j. c #F2E30C",
"k. c #F6E50A",
"l. c #EEE112",
"z. c #ECE719",
"x. c #F2E113",
"c. c #F9E412",
"v. c #F6EA14",
"b. c #F6E21C",
"n. c #D3C920",
"m. c #DCD323",
"M. c #F1DB22",
"N. c #F2E423",
"B. c #2C2E8E",
"V. c #322F8C",
"C. c #2C328D",
"Z. c #33378E",
"A. c #2C2E92",
"S. c #2E2E9A",
"D. c #2E3192",
"F. c #2C3299",
"G. c #313295",
"H. c #32319F",
"J. c #2E32A1",
"K. c #898989",
"L. c #9C9C9C",
"P. c #939393",
"I. c #9DA195",
"U. c #9D9BA1",
"Y. c #A3A2A2",
"T. c #ABACA9",
"R. c #BBBBBB",
"E. c #B4B2B6",
"W. c #C1C2BC",
"Q. c #C5C7C5",
"!. c #DCDBDC",
"~. c #E2E1E1",
"^. c #EBEBEA",
"/. c #EEF1EB",
"(. c #F4F4F4",
"). c #FBFCF5",
"_. c #FFFFFF",
"`. c None",
/* pixels */
"`.`.`.`.`.`.`.`.`.`.`.`.`.`.`.`.`.`.`.`.`.`.`.`.`.`.`.`.`.`.`.`.`.`.`.  I 1 `.`.`.`.`.`.`.`.`.`.`.`.`.`.`.`.`.`.`.`.`.`.`.`.`.`.`.`.`.`.`.`.`.`.`.`.`.`.`.`.`.`.",
"`.`.`.`.`.`.`.`.`.`.`.`.`.`.`.`.`.`.`.`.`.`.`.`.`.`.`.`.`.`.`.`.`.h `.`.`.`.`.`.`.`.l `.`.`.`.`.`.`.`.`.`.`.`.`.`.`.`.`.`.`.`.`.`.`.`.`.`.`.`.`.`.`.`.`.`.`.`.`.",
"`.`.`.`.`.`.`.`.`.`.`.`.`.`.`.`.`.`.`.`.`.`.`.`.`.`.`.`.`.`.`.`.# `.`.# `.`.h .   `.`.`.`.`.`.`.`.`.`.`.`.`.`.`.`.`.`.`.`.`.`.`.`.`.`.`.`.`.`.`.`.`.`.`.`.`.`.`.",
"`.`.`.`.`.`.`.`.`.`.`.`.`.`.`.`.`.`.`.`.`.`.`.`.`.`.`.`.`.`.`.`.`.`.`.2.8.x.a.y.y.x.e.#.`.`.`.`.`.`.`.`.`.`.`.`.`.`.`.`.`.`.`.`.`.`.`.`.`.`.`.`.`.`.`.`.`.`.`.`.",
"`.`.`.`.`.`.`.`.`.`.`.`.`.`.`.`.`.`.`.`.`.`.`.`.`.`.`.`.`.`.`.`.`.a.c.a.a.a.x.y.a.a.a.a.a.  `.`.`.`.`.`.`.`.`.`.`.`.`.`.`.`.`.`.`.`.`.`.`.`.`.`.`.`.`.`.`.`.`.`.",
"`.`.`.`.`.`.`.`.`.`.`.`.`.`.`.`.`.`.`.`.`.`.`.`.`.`.`.`.`.`.`.f x.y.0 a.y.a.a.a.a.a.a.a.a.a.- `.`.`.`.`.`.`.`.`.`.`.`.`.`.`.`.`.`.`.`.`.`.`.`.`.`.`.`.`.`.`.`.`.",
"`.`.`.`.`.`.`.`.`.`.`.`.`.`.`.`.`.`.`.`.`.`.`.`.`.`.`.`.`.`.`.q.q.a.a.a.a.a.a.a.a.a.a.a.a.a.i.x `.`.`.`.`.`.`.`.`.`.`.`.`.`.`.`.`.`.`.`.`.`.`.`.`.`.`.`.`.`.`.`.",
"`.`.`.`.`.`.`.`.`.`.`.`.`.`.`.`.`.`.`.`.`.`.`.`.`.`.`.`.`.`.q.x.a.a.a.a.a.a.a.a.a.a.a.a.a.a.a.a.`.`.`.`.`.`.`.`.`.`.`.`.`.`.`.`.`.`.`.`.`.`.`.`.`.`.`.`.`.`.`.`.",
"`.`.`.`.`.`.`.`.`.`.`.`.`.`.`.`.`.`.`.`.`.`.`.`.`.`.`.`.`.. j.a.a.a.a.a.a.a.a.a.a.a.a.a.a.a.a.a.  `.`.`.`.`.`.`.`.`.`.`.`.`.`.`.`.`.`.`.`.`.`.`.`.`.`.`.`.`.`.`.",
"`.`.`.`.`.`.`.`.`.`.`.`.`.`.`.`.`.`.`.`.`.`.`.`.`.`.`.`.`.e.a.a.a.a.y.a.a.a.a.a.a.a.a.a.a.a.a.a.s.`.`.`.`.`.`.`.`.`.`.`.`.`.`.`.`.`.`.`.`.`.`.`.`.`.`.`.`.`.`.`.",
"`.`.`.`.`.`.`.`.`.`.`.`.`.`.`.`.`.`.`.`.`.`.`.`.`.`.`.`.`.a.a.a.a.a.a.a.a.a.a.a.a.a.a.a.a.a.a.a.i.`.`.`.`.`.`.`.`.`.`.`.`.`.`.`.`.`.`.`.`.`.`.`.`.`.`.`.`.`.`.`.",
"`.`.`.`.`.`.`.`.`.`.`.`.`.`.`.`.`.`.`.`.`.`.`.`.`.`.`.`.`.a.a.a.a.a.a.a.a.a.a.a.a.y.x.y.y.x.y.a.a.`.`.`.`.`.`.`.`.`.`.`.`.`.`.`.`.`.`.`.`.`.`.`.`.`.`.`.`.`.`.`.",
"`.`.`.`.`.`.`.`.`.`.`.`.`.`.`.`.`.`.`.`.`.`.`.`.`.`.`.`.  a.a.a.a.a.a.a.a.a.a.a.a.a.a.a.a.a.a.a.a.  `.`.`.`.`.`.`.`.`.`.`.`.`.`.`.`.`.`.`.`.`.`.`.`.`.`.`.`.`.`.",
"`.`.`.`.`.`.`.`.`.`.`.`.`.`.`.`.`.`.`.`.`.`.`.`.`.`.`.`.X a.a.a.a.a.a.a.a.a.a.y.a.a.a.a.a.a.a.e.a.a.a.`.`.`.`.`.`.`.`.`.`.`.`.`.`.`.`.`.`.`.`.`.`.`.`.`.`.`.`.`.",
"`.`.`.`.`.`.`.`.`.`.`.`.`.`.`.`.`.`.`.`.`.`.`.`.`.`.`.`.  y.a.a.a.a.a.a.y.t ~._./.q a.i.a.n E.^.  y.d.`.`.`.`.`.`.`.`.`.`.`.`.`.`.`.`.`.`.`.`.`.`.`.`.`.`.`.`.`.",
"`.`.`.`.`.`.`.`.`.`.`.`.`.`.`.`.`.`.`.`.`.`.`.`.`.`.`.`.`.a.a.a.a.a.a.a.^._._._._._./.8.I._._._._.).`.`.`.`.`.`.`.`.`.`.`.`.`.`.`.`.`.`.`.`.`.`.`.`.`.`.`.`.`.`.",
"`.`.`.`.`.`.`.`.`.`.`.`.`.`.`.`.`.`.`.`.`.`.`.`.`.`.`.`.`.x.a.a.a.a.y.Y _._._._._._._.Q _._._._._._._.`.`.`.`.`.`.`.`.`.`.`.`.`.`.`.`.`.`.`.`.`.`.`.`.`.`.`.`.`.",
"`.`.`.`.`.`.`.`.`.`.`.`.`.`.`.`.`.`.`.`.`.`.`.`.`.`.`.`.`.y.a.a.a.a.a._._._._._._._._._._._._._._._._.`.`.`.`.`.`.`.`.`.`.`.`.`.`.`.`.`.`.`.l   `.`.`.`.`.`.`.`.",
"`.`.`.`.`.`.`.c.x.x.s.`.`.`.`.`.`.`.`.`.`.`.`.`.`.`.`.`.`.x.l.a.a.a.N _._._._._._._._._.j _._._._.  _.`.`.`.`.`.`.`.`.`.`.`.`.`.`.`.`.`.`.C a.a.a.`.  `.`.`.`.`.",
"`.`.`.`.V q.9 a.y.a.y.t.`.`.`.`.`.`.`.`.`.`.`.`.`.`.`.`.`.y.a.q.q.a.e _.^.  _._._._._._.# _._._._.L._.`.`.`.`.`.`.`.`.`.`.`.`.`.`.`.`.`.`.x.a.a.V q.y.y.@ `.`.`.",
"`.`.`.#.a.a.a.+ q.a.a.y.X `.`.`.`.`.`.`.`.`.`.`.`.`.`.`.`.2.a.4.( a.0._._._._._._._._._.^._._._._._._.`.`.`.`.`.`.`.`.`.`.`.`.`.`.`.`.`.`.    f.M.a.a.a.a.`.`.`.",
"`.`.`.l.a.a.y.e.d.j.a.d.5.`.`.`.`.`.`.`.`.`.`.`.`.`.`.`.`.9 a.7.e.a.e._._._._._._._._._.C k.e.y.5.).`.`.`.`.`.`.`.`.`.`.`.`.`.`.`.`.`.: a.a.a.t.y.a.a.a.a.`.`.`.",
"`.z.y.@ a.a.x.+.x.l.x.a.p.`.`.`.`.`.`.`.`.`.`.`.`.`.`.`.    a.x.d.  a.,._._._._._._._.*.a.a.a.a.j.4.`.`.`.`.`.`.`.`.`.`.`.`.`.`.`.`.`.c.a.a.a.a.h.y.y.* j.d.c.`.",
"$ a.a.y.+.N.&.a.a.a.a.a.x.% `.`.`.`.`.`.`.`.`.`.`.`.`.`.`.`.^ a.a.a.a.a.m._._._._.).<.x.a.a.a.a.d.y.`.`.`.`.`.`.`.`.`.`.`.`.`.`.`.`.a.a.9.a.a.a.a.t r.a.a.a.y.=.",
"e.a.a.a.a.N 9.a.a.a.a.a.a.u.`.`.`.`.`.`.`.`.`.`.`.`.`.`.`.`.a.a.a.a.a.a.a.a.e.6.r.i.a.a.a.a.x.y.v.x.`.`.`.`.`.`.`.`.`.`.`.`.`.`.`.`.a.y.w.h.a.a.d.%.a.a.a.y.a.q.",
"a.a.a.a.a.a.6.a.a.a.a.a.a.a.`.`.`.`.`.`.`.`.`.`.`.`.`.`.`.`.a.a.a.a.a.a.a.a.a.q.c   X 6 . o X.o.]  .M `.`.`.`.`.`.`.`.`.`.`.`.`.`.`.a.x.a.j.a.a.e.y a.a.a.q.e.y.",
"e.j.a.a.a.a.  e.y.l.j.a.a.a.`.`.`.`.`.`.`.`.`.`.`.`.`.`.`.v.i.n a.a.a.a.i.O o.` ` ` ` ` ` ` ` ` ] ] ` `   `.`.`.`.`.`.`.`.`.`.`.`.`.a.x.a.a.q.j.f.$.d.a.w.a.t.q.",
"m f.q.a.a.>.8.o   j.a.a.x.a.`.`.`.`.`.`.`.`.`.`.`.`.`.`.w 1.X x.y.a.a.a.O.` ` ` ` ` ` ` ` ` ` ` ' _ ` ` ; | | x `.`.`.`.`.`.`.`.`.C a.y.a.a.  e.a.y.k.  1.0.a.z.",
"`.a.a.a.a.a.a.a.y.x.a.a.a.a.h.`.`.`.`.`.`.`.`.`.`.`.`.`.A a.a.r.a.a.q.) | ` ` ` ` ` ` ` ` ` ` ` ` ` ` ` ` ` `   `.`.`.`.`.`.`.`.* q.x.x.a.a.a.a.a.a.a.a.a.a.c.`.",
"`.X a.a.a.a.a.a.x.y.a.a.a.a.a.0.`.`.`.`.`.`.`.`.`.`.`.`.`.d.Z a.a.l.j._ | ` ` ` ` ` ` ` ` ` ` ` ` ` ` ` / ` ..`.`.`.`.`.`.`.`.v x.y.y.y.a.a.a.a.a.a.a.a.y.y.`.`.",
"`.`.i.a.a.a.a.a.y.a.a.a.a.a.a.y.d.`.`.`.`.`.`.`.`.`.`.`.`.`.= t k.q.4 ` ` ` ` ` ` ` ` ` ` ` ` ` ` ` ` { ! ` `.`.`.`.`.`.`.`.:.a.a.a.a.a.a.a.a.a.a.y.a.a.8 `.`.`.",
"`.`.`.i.a.a.a.a.a.a.a.a.a.a.y.x.a.q.`.`.`.`.`.`.`.`.`.`.`.`.`.f.a.a.  ` ` ` ` ` ` ` ` ` ` ` ` ` ` ` ` ` 3 ` `.`.`.`.`.`.`.b.a.a.a.a.a.a.a.a.a.a.a.x.q.  `.`.`.`.",
"`.`.`.`.x x.a.a.a.a.a.a.x.a.y.x.a.a.s.`.`.`.`.`.`.`.`.`.`.`.`.*.a.a.  ] _ ` ` ` ` ` ` ` ` ` ` ` ` ` ` ` ` ` `.`.`.`.`.`.x.a.a.a.a.a.a.a.a.a.a.a.a.x.X `.`.`.`.`.",
"`.`.`.`.`.1 a.a.a.a.a.a.y.a.a.y.a.a.i.j.& `.`.`.`.`.`.`.`.`.`.  a.a.@.] ' ` ` ` ` ` ` ` ` ` ` ` ` ` ~   # `.`.`.`.`.D i.a.a.a.a.a.a.a.a.a.a.a.a.a.9 `.`.`.`.`.`.",
"`.`.`.`.`.`.* x.a.a.y.a.a.e.a.a.a.a.a.a.a.w `.`.`.`.`.`.`.`.`.  a.a.a.[ ` ` ` ` ` ` ` ` ` ` ` ` ` ` `.`.`.`.`.`.`.@ y.a.a.a.a.a.a.a.a.a.a.a.a.a.x.`.`.`.`.`.`.`.",
"`.`.`.`.`.`.`.0.a.a.x.y.x.y.a.a.y.a.a.a.a.a.j.`.`.`.`.`.`.`.`.O a.a.a.. ` ` ` ` ` ` ` ` ` ` ` ` [ `.`.`.`.`.`.`.S x.a.a.a.a.a.a.a.a.a.a.a.a.a.x.`.`.`.`.`.`.`.`.",
"`.`.`.`.`.`.`.`.s.a.a.a.a.a.a.a.j.a.y.a.a.a.a.y.p `.`.`.`.`.`.  a.a.a.q.| ' ' ` ` ` ` ` ` ` ` } `.`.`.`.`.`.`.e.a.a.a.a.a.x.y.a.a.a.a.a.y.x.b.`.`.`.`.`.`.`.`.`.",
"`.`.`.`.`.`.`.`.`.x.a.a.a.a.a.a.a.a.a.a.a.a.x.y.a.#.`.`.`.`.`.$ a.a.a.a.r.' ` ` ` ` ` ` `  .  `.`.`.`.`.`.`.c.a.a.a.a.a.a.y.a.a.a.a.a.a.a.y.< `.`.`.`.`.`.`.`.`.",
"`.`.`.`.`.`.`.`.`.7 a.a.a.a.a.a.a.a.a.a.a.a.a.a.a.a.M.<   `.`.-.a.a.a.a.e.t.* _ ` ` ` ` { e.V `.`.`.  _._.O b.a.a.y.a.a.a.a.a.a.a.a.a.a.a.; `.`.`.`.`.`.`.`.`.`.",
"`.`.`.`.`.`.`.`.`.`.  a.y.x.a.a.a.a.a.a.a.a.a.a.a.a.y.y.  _.`.y.a.a.a.a.e.>.#.2.e.9 8 x.a.a.4.`.`.`._._._._._.-.y.x.a.a.a.a.a.a.a.a.a.a.3.`.`.`.`.`.`.`.`.`.`.`.",
"`.`.`.`.`.`.`.`.`.`.`.%.a.a.a.a.a.a.a.a.a.x.y.x.a.a.a.a.  _._.(._._._._._._._._.^.d.a.a.a.a.e.2   p _._._._._._.  e.a.a.a.a.a.a.y.a.a.e.`.`.`.`.`.`.`.`.`.`.`.`.",
"`.`.`.`.`.`.`.`.`.`.`.`.b.a.y.x.a.a.a.a.a.y.a.y.i.a.a.a._._._._.)._._._._._._._.).).y.a.a.a.q._.& _._._._._._._._.@ a.a.a.a.a.a.x.e.q.`.`.`.`.`.`.`.`.`.`.`.`.`.",
"`.`.`.`.`.`.`.`.`.`.`.`.`.i.e.y.a.a.a.a.a.a.a.a.a.a.y.2._._._._.L._._._._._._._._._._.p.d.y.q._._._., _._._._._._._.* a.a.a.a.a.a.i.`.`.`.`.`.`.`.`.`.`.`.`.`.`.",
"`.`.`.`.`.`.`.`.`.`.`.`.`.`.x.y.a.a.a.a.a.a.a.a.a.a.r.Y._._._._._.R._._._._._._._._._.).y.a.y.z _._.)._._._._._._._.).M.a.a.a.a.y.  `.`.`.`.`.`.`.`.`.`.`.`.`.`.",
"`.`.`.`.`.`.`.`.`.`.`.`.`.`.k x.a.a.a.a.a.a.a.a.a.a.N _._._._._._._._._._._._.< _._._._._.j.q ).j _._._._._._._._._._._.y.a.a.a.$.`.`.`.`.`.`.`.`.`.`.`.`.`.`.`.",
"`.`.`.`.`.`.`.`.`.`.`.`.`.`.`.O a.a.a.a.a.a.a.a.a.d._._._._._._._._.L._._._._.R._._._._._./._._._.)._.^._._._._._._._._.2 a.a.f.`.`.`.`.`.`.`.`.`.`.`.`.`.`.`.`.",
"`.`.`.`.`.`.`.`.`.`.`.`.`.`.`.`.3 x.a.a.a.y.a.a.x.T._._._._._._._._.).K.!._._._._._._._._._._._._.U   _._._._._._._._._.).v.a.`.`.`.`.`.`.`.`.`.`.`.`.`.`.`.`.`.",
"`.`.`.`.`.`.`.`.`.`.`.`.`.`.`.`.`.:.q.a.a.l.y.g.  _._._._._._._._._._.(._._._._._._._._._._._._._._._._._._._._._._._._._.^.`.`.`.`.`.`.`.`.`.`.`.`.`.`.`.`.`.`.",
"`.`.`.`.`.`.`.`.`.`.`.`.`.`.`.`.`.`.a.j.a.a.a.> _._._._._._._._._._._._._._._._._._._._._._._._._._.z _._._._._._._._._._._.`.`.`.`.`.`.`.`.`.`.`.`.`.`.`.`.`.`.",
"`.`.`.`.`.`.`.`.`.`.`.`.`.`.`.`.`.`.`.i.a.a.  _._._._._._._._._._._._._._._._._._._._._._._._._._._._._._._._._._._._._._.1 `.`.`.`.`.`.`.`.`.`.`.`.`.`.`.`.`.`.",
"`.`.`.`.`.`.`.`.`.`.`.`.`.`.`.`.`.`.`.`.g.  _._._._._._._._._._._._._._._._._._._._._._._._._._._._._._._._._._._._._._.P.`.`.`.`.`.`.`.`.`.`.`.`.`.`.`.`.`.`.`.",
"`.`.`.`.`.`.`.`.`.`.`.`.`.`.`.`.`.`.`.`.z _._._._._._._._._._._._._._._._._._._._._._._._._._._._._._.x _._._._._._._.  `.`.`.`.`.`.`.`.`.`.`.`.`.`.`.`.`.`.`.`.",
"`.`.`.`.`.`.`.`.`.`.`.`.`.`.`.`.`.`.`.`.`.(._._._._._._._._._._._._._._._._._._._._._._._._._._._._._.).(._._._._._.`.`.`.`.`.`.`.`.`.`.`.`.`.`.`.`.`.`.`.`.`.`.",
"`.`.`.`.`.`.`.`.`.`.`.`.`.`.`.`.`.`.`.`.`.`.# _._._._._._._._._._._._._._._._._._._._._._._._._._._._._.R._._.(.  `.`.`.`.`.`.`.`.`.`.`.`.`.`.`.`.`.`.`.`.`.`.`.",
"`.`.`.`.`.`.`.`.`.`.`.`.`.`.`.`.`.`.`.`.`.`.`.`.x _._._._._._._._._._._._._._._._._._._._._._._._._._._._.W `.`.`.`.`.`.`.`.`.`.`.`.`.`.`.`.`.`.`.`.`.`.`.`.`.`.",
"`.`.`.`.`.`.`.`.`.`.`.`.`.`.`.`.`.`.`.`.`.`.`.`.`.`.`.  2 X Q._._._._._._._._._._._._._._._._._._._._._._._.z `.`.`.`.`.`.`.`.`.`.`.`.`.`.`.`.`.`.`.`.`.`.`.`.`.",
"`.`.`.`.`.`.`.`.`.`.`.`.`.`.`.`.`.`.`.`.`.`.`.`.`.`.`._._._._._._._._._._._._._._._._._._._._._._._._._._._._.h `.`.`.`.`.`.`.`.`.`.`.`.`.`.`.`.`.`.`.`.`.`.`.`.",
"`.`.`.`.`.`.`.`.`.`.`.`.`.`.`.`.`.`.`.`.`.`.`.`.`.`.!._._._._._._._._._._._._._._._._._._._._._._._._._._._._._.`.`.`.`.`.`.`.`.`.`.`.`.`.`.`.`.`.`.`.`.`.`.`.`.",
"`.`.`.`.`.`.`.`.`.`.`.`.`.`.`.`.`.`.`.`.`.`.`.`.`.Y._._._._._._._._._._._._._._._._._._._._._._._._._._._._._._._.`.`.`.`.`.`.`.`.`.`.`.`.`.`.`.`.`.`.`.`.`.`.`.",
"`.`.`.`.`.`.`.`.`.`.`.`.`.`.`.`.`.`.`.`.`.`.`.`., _._._._._._._._._._._._._._._._._._._._._._._._._._._._._._._._.W `.`.`.`.`.`.`.`.`.`.`.`.`.`.`.`.`.`.`.`.`.`.",
"`.`.`.`.`.`.`.`.`.`.`.`.`.`.`.`.`.`.`.`.`.`.`.# _._._._._._._._._._._._._._._._._._._._._._._._._._._._._._._._._._.`.`.`.`.`.`.`.`.`.`.`.`.`.`.`.`.`.`.`.`.`.`.",
"`.`.`.`.`.`.`.`.`.`.`.`.`.`.`.`.`.`.`.`.`.`.`._._._._._._._._._._._._._._._._._._._._._._._._._._._._._._._._._._._.(.`.`.`.`.`.`.`.`.`.`.`.`.`.`.`.`.`.`.`.`.`.",
"`.`.`.`.`.`.`.`.`.`.`.`.`.`.`.`.`.`.`.`.`.`._._._._._._._._._._._._._._._._._._._._._._._._._._._._._._._._._._._._._.`.`.`.`.`.`.`.`.`.`.`.`.`.`.`.`.`.`.`.`.`.",
"`.`.`.`.`.`.`.`.`.`.`.`.`.`.`.`.`.`.`.`.`.  _._._._._._._._._._._._._._._._._._._._._._._._._._._._._._._._._._._._._.1 `.`.`.`.`.`.`.`.`.`.`.`.`.`.`.`.`.`.`.`.",
"`.`.`.`.`.`.`.`.`.`.`.`.`.`.`.`.`.`.`.`.`._._._._._._._._._._._._._._._._._._._._._._._._._._._._._._._._._._._._._._._.`.`.`.`.`.`.`.`.`.`.`.`.`.`.`.`.`.`.`.`.",
"`.`.`.`.`.`.`.`.`.`.`.`.`.`.`.`.`.`.`.`.# _._._._._._._._._._._._._._._._._._._._._._._._._._._._._._._._._._._._._._._.`.`.`.`.`.`.`.`.`.`.`.`.`.`.`.`.`.`.`.`.",
"`.`.`.`.`.`.`.`.`.`.`.`.`.`.`.`.`.`.`.`._._._._._._._._._._._._._._._._._._._._._._._._._._._._._._._._._._._._._._._._.  `.`.`.`.`.`.`.`.`.`.`.`.`.`.`.`.`.`.`.",
"`.`.`.`.`.`.`.`.`.`.`.`.`.`.`.`.`.`.`.# _._._._._._._._._._._._._._._._._._._._._._._._._._._._._._._._._._._._._._._._.(.`.`.`.`.`.`.`.`.`.`.`.`.`.`.`.`.`.`.`.",
"`.`.`.`.`.`.`.`.`.`.`.`.`.`.`.`.`.`.`.(._._._._._._._._._._._._._._._._._._._._._._._._._._._._._._._._._._._._._._._._._.`.`.`.`.`.`.`.`.`.`.`.`.`.`.`.`.`.`.`.",
"`.`.`.`.`.`.`.`.`.`.`.`.`.`.`.`.`.`.`._._._._._._._._._._._._._._._._.).).W.W ,   o t e 5 o   o R !.)._._._._._._._._._._.`.`.`.`.`.`.`.`.`.`.`.`.`.`.`.`.`.`.`.",
"`.`.`.`.`.`.`.`.`.`.`.`.`.`.`.`.`.`.`._._._._._._._._._.Q.  Z v.a.q.e.y.y.a.a.a.a.a.a.a.a.<.a.a.a.a.y.x.x.9.  ~._._._._._.`.`.`.`.`.`.`.`.`.`.`.`.`.`.`.`.`.`.`.",
"`.`.`.`.`.`.`.`.`.`.`.`.`.`.`.`.`.`.  _._._._._._._.5 a.i.a.a.a.a.a.a.a.a.a.a.a.a.a.a.a.a.q.b.a.a.a.a.a.y.a.y.d.a.A ^._._.`.`.`.`.`.`.`.`.`.`.`.`.`.`.`.`.`.`.`.",
"`.`.`.`.`.`.`.`.`.`.`.`.`.`.`.`.`.`.~._._._._.U.K A.D.D.B.D.B.:   B 7.a.a.r.q.e.a.a.a.a.a.a.a.a.a.a.a.a.a.x.e.y.y.% d P _.`.`.`.`.`.`.`.`.`.`.`.`.`.`.`.`.`.`.`.",
"`.`.`.`.`.`.`.`.`.`.`.`.`.`.`.`.`.`.!.Q O D.C.D.D.D.D.D.D.D.D.D.D.D.D.D.B.G.G.D.H.D.B.H F i u u i G K F.J.B.D.A.D.D.D.D._.`.`.`.`.`.`.`.`.`.`.`.`.`.`.`.`.`.`.`.",
"`.`.`.`.`.`.`.`.`.`.`.`.`.`.`.`.`.`.`.`.Z.D.D.D.D.D.D.D.D.D.D.D.D.D.D.D.A.D.D.D.D.D.D.D.D.D.D.D.D.D.D.D.D.D.D.D.D.D.D.D.T `.`.`.`.`.`.`.`.`.`.`.`.`.`.`.`.`.`.`.",
"`.`.`.`.`.`.`.`.`.`.`.`.`.`.`.`.`.`.`.`.S.D.D.D.D.D.D.D.D.D.D.D.D.D.D.D.G.D.D.D.D.D.D.D.D.D.D.D.D.D.D.D.D.D.D.D.D.D.D.D.`.`.`.`.`.`.`.`.`.`.`.`.`.`.`.`.`.`.`.`.",
"`.`.`.`.`.`.`.`.`.`.`.`.`.`.`.`.`.`.`.`.L D.D.D.D.D.D.D.D.D.D.D.D.D.D.D.D.D.D.D.D.D.D.D.D.D.D.D.D.D.D.D.D.D.D.D.D.D.D.D.`.`.`.`.`.`.`.`.`.`.`.`.`.`.`.`.`.`.`.`.",
"`.`.`.`.`.`.`.`.`.`.`.`.`.`.`.`.`.`.`.`.`.`.`.`.  A.C.G.D.D.D.D.D.D.D.D.D.D.D.D.D.D.D.D.D.D.D.D.D.D.D.D.D.D.D.D.D.G.- `.`.`.`.`.`.`.`.`.`.`.`.`.`.`.`.`.`.`.`.`.",
"`.`.`.`.`.`.`.`.`.`.`.`.`.`.`.`.`.`.`.`.`.`.`.`.`.`.`.`.`.  : G.C.D.D.D.D.D.D.D.D.D.D.D.D.D.D.D.D.D.D.A.D.D.A.V.# `.`.`.`.`.`.`.`.`.`.`.`.`.`.`.`.`.`.`.`.`.`.`.",
"`.`.`.`.`.`.`.`.`.`.`.`.`.`.`.`.`.`.`.`.`.`.`.`.`.`.`.`.`.`.`.`.`.`.`.`.`.    s B.G.D.D.D.D.D.D.G.D.a   R `.`.`.`.`.`.`.`.`.`.`.`.`.`.`.`.`.`.`.`.`.`.`.`.`.`.`."
};
