/* XPM */
static char *result[] = {
/* columns rows colors chars-per-pixel */
"58 80 47 1 ",
"  c black",
". c #010100",
"X c #010101",
"o c #020200",
"O c #020202",
"+ c #080800",
"@ c #120E01",
"# c #131001",
"$ c #1E1802",
"% c #3A2F05",
"& c #403305",
"* c #474400",
"= c #484400",
"- c #575300",
"; c #585300",
": c #676200",
"> c #686200",
", c #7D6409",
"< c #7D640A",
"1 c #676767",
"2 c #686868",
"3 c #777777",
"4 c gray47",
"5 c #896D0A",
"6 c #896E0B",
"7 c #94770B",
"8 c #95770B",
"9 c #95770C",
"0 c #95780C",
"q c #878100",
"w c #979000",
"e c #BE980E",
"r c #BF980F",
"t c #BF990F",
"y c #D6CC00",
"u c #D7CC00",
"i c #E6DB00",
"p c #E7DB00",
"a c #F6EA00",
"s c #F7EA00",
"d c #FEF100",
"f c #FEF200",
"g c #FFF200",
"h c gray53",
"j c #FEFEFE",
"k c white",
"l c None",
/* pixels */
"llllllll          llllllllllllllllllllllllllllllllllllllll",
"llllllll          llllllllllllllllllllllllllllllllllllllll",
"llllllll          llllllllllllllllllllllllllllllllllllllll",
"lllll        jkkkk  llllllllllllllllllllllllllllllllllllll",
"lllll        jkkkk  llllllllllllllllllllllllllllllllllllll",
"lll     kkkkj               llllllllllllllllllllllllllllll",
"lll     kkjjk               llllllllllllllllllllllllllllll",
"lll     kkkkj               llllllllllllllllllllllllllllll",
"   kk        fggggffgggffggg       lllllllllllllllllllllll",
"   kk        fggggffgggffggg       lllllllllllllllllllllll",
"   kk   ggggffggggffgggffggggffgggg   llllllllllllllllllll",
"   kk   ggffggffffggfffggffffggffff   llllllllllllllllllll",
"   kk   ggggffggggffgggffggggffgggg   llllllllllllllllllll",
"kkk  ggg  ggffggggffgggffggggffggggfgg  llllllllllllllllll",
"kkk  ggg  ggffggggffgggffggggffggggfgg  llllllllllllllllll",
"lll  gggggggfffggfffgggffggggffgggfffg  llllllllllllllllll",
"lll  ggfggffggffffggfffggffffggffffgff  llllllllllllllllll",
"lll  gggggggffggggffgggffggggffggggffg  llllllllllllllllll",
"   gggggggggffggggffgggffggggffggggfgg  llllllllllllllllll",
"   gggggggggffggggffgggffggggffggggfgg  llllllllllllllllll",
"   ggggfggffggffffggfffggffffggffffgffff   lllllllllllllll",
"   ggggfggffggffffggfffggffffggffffgffff   lllllllllllllll",
"   gggggggggffggggffgggffggggffggggfgggg   lllllllllllllll",
"   gggggggggffggggffgggffggggffggggfgggg        llllllllll",
"   gggggggggffggggffgggffggggffggggfgggg        llllllllll",
"   ggggfggffggffffggfffggfff            kkjjjjkk  llllllll",
"   ggggfggffggffffggfffggfff            kkjjjjkk  llllllll",
"   gggggggggffggggffgggffggg            jjkkkkjj  llllllll",
"   gggggggggffggggffgggff   kjjkkkkjkk  jjkkkkjjkkO  lllll",
"   gggggggggffggggffgggff   kjjkkkkjkk  jjkkkkjjkkO  lllll",
"   ggggfggffggffffggfff  jjjjkkjjjjkjjjj   jj   jjO  lllll",
"   ggggfggffggffffggfff  jjjjkkjjjjkjjjj   jj   jjO  lllll",
"   gggggggggffggggffggg  kkkkjjkkkkjkkkk   kk   kkO  lllll",
"lll  ggggg   fggggffggg  kkkkjjkkkkjkkkk   kkkjjkkO  lllll",
"lll  ggggg   fggggffggg  kkkkjjkkkkjkkkk   kkkjjkkO  lllll",
"lll  dfgfd     gggggggg  kkkkkkkk  kkkkk          llllllll",
"lll  dfgfd     gggggggg  kkkkkkkk  kkkkk          llllllll",
"lll  ggfgg     fffggfff  jjjjkkjj  kkjjj          llllllll",
"lll       ffggf   ggfffgg   jkkjjjjkjj  ggffffggffo  lllll",
"lll       ffggf   ggfffgg   jkkjjjkkkj  ggffffggffo  lllll",
"lll  lll     ggggggggggggggg          ggggggggggggo  lllll",
"lll  lll     ggggggggggggggg          ggggggggggggo  lllll",
"lll  lll     safffggfffggfff++++++++++ffssaaaassaao  lllll",
"llllllll       fffggfffggffffggffffgffff          llllllll",
"llllllll       ffgggfffgggfffggfffgggfff          llllllll",
"llllllll  ggggggggggggggggggggggg       tttttttttt.  lllll",
"llllllll  ggggggggggggggggggggggg       tttrrttttr.  lllll",
"llllllll  ffggfiiiggfffggffffgpii@@@@@@@tteeeettee#@@lllll",
"llllllll  ffggf   ggfffggffffg   eeteeeetteeeetteettt  lll",
"llllllll  ffggf   ggfffgggfffg   ettteeettreettteettt  lll",
"llllllllll     ggggggggggggg  tttttttttttttttttttttre  lll",
"llllllllll     ffgggfffgggff  tteettteerttteettteettt  lll",
"llllllllll     fffggfffgguyy$$teeeeteeeetteeeetteettt$$lll",
"lllllllllllll  fffggfffgg   etteeeeteeeetteeeetteettttt&  ",
"lllllllllllll  ffgggfffgg   ttteeettteeettteettteettttt&  ",
"lllllllllllll  gggggggggg   tt   tttttttttttttttttteett&  ",
"lllllllllllll  ffgggfffgg   tt   ettteeettteettteettttt&  ",
"lllllllllllll  fffggfffgg   et   7898777898778987790000%  ",
"lllllllllllll  fffggfffgg   et                         lll",
"lllllllllllll  ffgggfffgg   tt                         lll",
"lllllllllllll  gggggggggg   ttttttttttttttttt   llllllllll",
"lllllllllllll  ffgggfffgg   etteeettteeettree   llllllllll",
"lllllllllllll  fffggfffgg=**56teeeeteeeette55   llllllllll",
"lllllllllllll  fffggfffggfff  teeeeteeeette  lllllllllllll",
"lllllllllllll  ggggggggggggg  ttrrtttrrtttt  lllllllllllll",
"lllllllllllll  ggggggggggggg  ttttttttttttt  lllllllllllll",
"lllllllllllll  ffgggfffgggff  teeettteeette  lllllllllllll",
"lllllllllllll  fffggfffggfff-;<,,eeteeee<<,  lllllllllllll",
"llllllllll     fffggfffggffffg   eeteeee   lllllllllllllll",
"llllllllll     ggggggggggggggg   ttttttt   lllllllllllllll",
"llllllll  kkkkk     ggggggggggggg            lllllllllllll",
"llllllll  jjkkj     fffggffffggff            lllllllllllll",
"llllllll  jjkkj11121wwwwwffffggff::>::::   11lllllllllllll",
"llllllll  jjkkjjjjkk     ffffggffffggfff   jj   llllllllll",
"llllllll  kkkkkkkkkk     ggggggggggggggg   kk   llllllllll",
"lllll     kkkkkkkkkkkkkkk     gggggggggg   kkkkk     lllll",
"lllll     jjkkjjjjkkjjjkk     gfffgggfff   jjjkk     lllll",
"lllll43334hhhkjjjjkkjjjkk333  qqqffgffff   jjjkk33X  lllll",
"lll  kkjkk   kjjjjkkjjjkkjjj     ffggfff   jjjkkjjO  lllll",
"lll  jjkjj   kkkkkkkkkkkkkkk     ggggggg   kkkkkkkO  lllll"
};
