/* XPM */
static char *result[] = {
/* columns rows colors chars-per-pixel */
"80 80 183 2 ",
"   c #010203",
".  c #070906",
"X  c #02020B",
"o  c #080909",
"O  c #060909",
"+  c #110E02",
"@  c #151303",
"#  c #1E1A01",
"$  c #1C1909",
"%  c #040213",
"&  c #080514",
"*  c #03031A",
"=  c #0C0B1E",
"-  c #101010",
";  c #221B00",
":  c #0D0D23",
">  c #0C082B",
",  c #080323",
"<  c #110E2D",
"1  c #100B24",
"2  c #0F1128",
"3  c #121324",
"4  c #14142E",
"5  c #19192D",
"6  c #161B2F",
"7  c #0F0432",
"8  c #110634",
"9  c #120D33",
"0  c #150D39",
"q  c #180F3B",
"w  c #161332",
"e  c #1A1137",
"r  c #16103B",
"t  c #1D153D",
"y  c #1E183C",
"u  c #1A1835",
"i  c #201A3D",
"p  c #1A273B",
"a  c #282A36",
"s  c #262739",
"d  c #262836",
"f  c #190F41",
"g  c #1D1343",
"h  c #1F1548",
"j  c #201749",
"k  c #241A4E",
"l  c #241A45",
"z  c #1A2D4D",
"x  c #1F2F45",
"c  c #1C3048",
"v  c #1F3052",
"b  c #262442",
"n  c #292245",
"m  c #272648",
"M  c #2B224B",
"N  c #2D2A48",
"B  c #312A4D",
"V  c #2D3149",
"C  c #353746",
"Z  c #373849",
"A  c #3A3B4B",
"S  c #333749",
"D  c #2E2357",
"F  c #342A5A",
"G  c #2F3C5B",
"H  c #3B3F53",
"J  c #3C355E",
"K  c #3A2C6A",
"L  c #363060",
"P  c #3D326E",
"I  c #413A5D",
"U  c #443E6E",
"Y  c #423570",
"T  c #46377B",
"R  c #4C3E7A",
"E  c #3E4154",
"W  c #3E4258",
"Q  c gray30",
"!  c #404253",
"~  c #40455A",
"^  c #474A5C",
"/  c #494C5D",
"(  c #404460",
")  c #4D4F63",
"_  c #4E4B6C",
"`  c #4B4567",
"'  c #514E69",
"]  c #5B5D6C",
"[  c #4A4270",
"{  c #584C7E",
"}  c #565F70",
"|  c #625D7A",
" . c #616371",
".. c #656876",
"X. c #6B6F7D",
"o. c #6D707F",
"O. c #4B3B82",
"+. c #574C82",
"@. c #584D84",
"#. c #55468A",
"$. c #574889",
"%. c #5A4C8D",
"&. c #5B5089",
"*. c #594595",
"=. c #5C4C94",
"-. c #5E4C9D",
";. c #584597",
":. c #5F5195",
">. c #5E509B",
",. c #614D9D",
"<. c #62519C",
"1. c #685A95",
"2. c #676483",
"3. c #686485",
"4. c #6F6B84",
"5. c #6E6A89",
"6. c #686489",
"7. c #6E7280",
"8. c #777A88",
"9. c #777B89",
"0. c #757499",
"q. c #7F7B9D",
"w. c #5F4BA1",
"e. c #5E50A2",
"r. c #5B5FA6",
"t. c #624CA4",
"y. c #634DA9",
"u. c #6352A3",
"i. c #6650AB",
"p. c #635EAA",
"a. c #6764AB",
"s. c #7F7CA4",
"d. c #7571AC",
"f. c #6C6DB0",
"g. c #6C74B3",
"h. c #707BB8",
"j. c #807C9E",
"k. c #827EA4",
"l. c #857FB1",
"z. c #7E818D",
"x. c #6B8DB5",
"c. c #6E8ABA",
"v. c #7384BD",
"b. c #7188BB",
"n. c gray56",
"m. c gray52",
"M. c #888D99",
"N. c #878A95",
"B. c #929292",
"V. c #8985AF",
"C. c #9195A1",
"Z. c #9A9FAA",
"A. c #8984B1",
"S. c #8C87B9",
"D. c #8E89BB",
"F. c #8781BC",
"G. c #938BBD",
"H. c #9193BE",
"J. c #9CA1AB",
"K. c gray63",
"L. c #A8ADB7",
"P. c #A9AEB8",
"I. c #BCBCBC",
"U. c #B6B6B6",
"Y. c #9A97CE",
"T. c #9999CB",
"R. c #9FA6C4",
"E. c #9FA5CA",
"W. c #9FA8CE",
"Q. c #A2A8C7",
"!. c #A2A7CE",
"~. c #A1A8CE",
"^. c #A5AACA",
"/. c #B5BAC4",
"(. c #A1A6D1",
"). c #A4AAD1",
"_. c #A9ACD5",
"`. c #A8A8D8",
"'. c #B1B9D2",
"]. c #C1C7CE",
"[. c #C5C5C5",
"{. c #C1C6D0",
"}. c None",
/* pixels */
"}.}.}.}.}.}.}.}.}.}.}.}.}.}.}.}.}.}.}.}.}.}.}.}.}.}.}.}.}.}.}.}.}.}.}.}.}.}.}.}.}.}.}.}.}.}.}.}.}.}.}.}.}.}.}.}.}.}.    }.}.}.}.}.}.}.}.}.}.}.}.}.}.}.}.}.}.}.}.",
"}.}.}.}.}.}.}.}.}.}.}.}.}.}.}.}.}.}.}.}.}.}.}.}.}.}.}.}.}.}.}.}.}.}.}.}.}.}.}.}.}.}.}.}.}.}.}.}.}.}.}.}.}.}.}.}.}.        }.}.}.}.}.}.}.}.}.}.}.}.}.}.}.}.}.}.}.",
"}.}.}.}.}.}.}.}.}.}.}.}.}.}.}.}.}.}.}.}.}.}.}.}.}.}.}.}.}.}.}.}.}.}.}.}.}.}.}.}.}.}.}.}.}.}.}.}.}.}.}.}.}.}.}.}.}.      }.}.}.}.}.}.}.}.}.}.}.}.}.}.}.}.}.}.}.}.",
"}.}.}.}.}.}.}.}.}.}.}.}.}.}.}.}.}.}.}.}.}.}.}.}.}.}.}.}.}.}.}.}.}.}.}.}.}.}.}.}.}.}.}.}.}.}.}.}.}.}.}.}.}.}.}.}.}.}.  }.}.}.}.}.}.}.}.}.}.}.}.}.}.}.}.}.}.}.}.}.",
"}.}.}.}.}.}.}.}.}.}.}.}.}.}.}.}.}.}.}.}.}.}.}.}.}.}.}.}.}.}.}.}.}.}.}.}.}.}.}.}.}.}.}.}.}.}.}.}.}.}.}.}.}.}.}.}.}.}.}.}.}.}.}.}.}.}.}.}.}.}.}.}.}.}.}.}.}.}.}.}.",
"}.}.}.}.}.}.}.}.}.}.}.}.}.}.}.}.}.}.}.}.}.}.}.}.}.}.}.}.}.}.}.}.}.}.}.}.}.}.}.}.}.}.}.}.}.}.}.}.}.}.}.}.}.}.}.}.  }.}.}.}.}.}.}.}.}.}.}.}.}.}.}.}.}.}.}.}.}.}.}.",
"}.}.}.}.}.}.}.}.}.}.}.}.}.}.}.}.}.}.}.}.}.}.}.}.}.}.}.}.}.}.}.}.}.}.}.}.}.}.}.}.}.}.}.}.}.}.}.}.}.}.}.}.}.}.}.}.}.}.}.}.}.}.}.}.}.}.}.}.}.}.}.}.}.}.}.}.}.}.}.}.",
"}.}.}.}.}.}.}.}.}.}.}.}.}.}.}.}.}.}.}.}.}.}.}.}.}.}.}.}.}.}.}.}.}.}.}.}.}.}.}.}.}.}.}.}.}.}.}.}.}.}.}.}.}.}.}.}.}.}.}.}.}.}.}.}.}.}.}.}.}.}.}.}.}.}.}.}.}.}.}.}.",
"}.}.}.}.}.}.}.}.}.}.}.}.}.}.}.}.}.}.}.}.}.}.}.}.}.}.}.}.}.}.}.}.}.}.}.}.}.}.}.}.}.}.}.}.}.}.}.}.}.}.}.}.}.}.}.}.}.}.}.}.}.}.}.}.}.}.}.}.}.}.}.}.}.}.}.}.}.}.}.}.",
"}.}.}.}.}.}.}.}.}.}.}.}.}.}.}.}.}.}.}.}.}.}.}.}.}.}.}.}.}.}.}.}.}.}.}.}.}.}.}.}.}.}.}.}.}.}.}.}.}.}.}.}.}.}.}.}.}.}.}.}.}.}.}.}.}.}.}.}.}.}.}.}.}.}.}.}.}.}.}.}.",
"}.}.}.}.}.}.}.}.}.}.}.}.}.}.}.}.}.}.}.}.}.}.}.}.}.}.}.}.}.}.}.}.}.}.}.}.}.}.}.}.}.}.}.}.}.}.}.}.}.}.}.}.}.}.}.}.}.}.}.}.}.}.}.}.}.}.}.}.}.}.}.}.}.}.}.}.}.}.}.}.",
"}.}.}.}.}.}.}.}.}.}.}.}.}.}.}.}.}.}.}.}.}.}.}.}.}.}.}.}.}.}.}.}.}.}.}.}.}.}.}.}.}.}.}.}.}.}.}.}.}.  }.}.}.}.}.}.}.}.}.}.}.}.}.}.}.}.}.}.}.}.}.}.}.}.}.}.}.}.}.}.",
"}.}.}.}.}.}.}.}.}.}.}.}.}.}.}.}.}.}.}.}.}.}.}.}.}.}.}.}.}.}.}.}.}.}.}.}.}.}.}.}.}.}.}.}.}.}.}.}.}.}.}.}.}.}.}.}.}.}.}.}.}.}.}.}.}.}.}.}.}.}.}.}.}.}.}.}.}.}.}.}.",
"}.}.}.}.}.}.}.}.}.}.}.}.}.}.}.}.}.}.}.}.}.}.}.}.}.}.}.}.}.}.}.}.}.}.}.}.}.}.}.}.}.}.}.}.}.}.}.}.}.}.}.}.}.}.}.}.}.}.}.}.}.}.}.}.}.}.}.}.}.}.}.}.}.}.}.}.}.}.}.}.",
"}.}.}.}.}.}.}.}.}.}.}.}.    o }.}..   }.}.}.}.}.}.}.}.}.}.}.}.}.}.}.}.}.}.}.}.}.}.}.}.}.}.}.}.}.}.}.}.}.}.}.}.}.}.}.}.}.}.}.}.}.}.}.}.}.}.}.}.}.}.}.}.}.}.}.}.}.",
"}.}.}.}.}.}.}.}.}.}.}.}.        }.}.}.  }.}.}.}.}.}.}.}.}.}.}.}.}.}.}.}.}.}.}.}.}.}.}.}.}.}.}.}.}.}.}.}.}.}.}.}.}.}.}.}.}.}.}.}.}.}.}.}.}.}.}.}.}.}.}.}.}.}.}.}.",
"}.}.}.}.}.}.}.}.}.}.}.}.      }.}.}.}.}.. }.}.}.}.}.}.}.}.}.}.}.}.}.}.}.}.}.}.}.}.}.}.}.}.}.}.}.}.}.}.}.}.}.}.}.}.}.}.}.}.}.}.}.}.}.}.}.}.}.}.}.}.}.}.}.}.}.}.}.",
"}.}.}.}.}.}.}.}.}.}.}.}.}.}.}.}.}.}.}.}.}.  }.}.}.}.}.}.}.}.}.}.}.}.}.}.}.}.}.}.}.}.}.}.}.}.}.}.}.}.}.}.}.}.}.}.}.}.}.}.}.}.}.}.}.}.}.}.}.}.}.}.}.}.}.}.}.}.}.}.",
"}.}.}.}.}.}.}.}.}.}.}.}.}.}.}.}.}.}.}.}.}.}.}.}.}.}.}.}.}.}.}.}.}.}.}.}.}.}.}.}.}.}.}.}.}.}.}.  }.}.}.}.}.}.}.}.}.}.}.}.}.}.}.}.}.}.}.}.}.}.}.}.}.}.}.}.}.}.}.}.",
"}.}.}.}.}.}.}.}.}.}.}.}.}.}.}.}.}.}.}.}.}.}.}.  }.}.}.}.}.  }.}.}.}.  }.  I.B.n.n.B.B.B.Q }.  }.}.}.}.}.}.}.}.}.}.}.}.}.}.}.}.}.}.}.}.}.}.}.}.}.}.}.}.}.}.}.}.}.",
"}.}.}.}.}.}.}.}.}.}.}.}.}.}.}.}.}.}.}.}.}.}.}.}.}.}.}.  }.}.}.}.}.}.  I.K.B.n.n.n.n.B.n.B.B.. }.}.}.}.}.}.}.}.}.}.}.}.}.}.}.}.}.}.}.}.}.}.}.}.}.}.}.}.}.}.}.}.}.",
"}.}.}.}.}.}.}.}.}.}.}.}.}.}.}.}.}.}.}.}.}.}.}.}.}.}.}.}.}.}.}.}.}.}.I.U.B.B.B.n.B.n.n.n.B.B.B.}.}.}.}.}.}.}.}.}.}.}.}.}.}.}.}.}.}.}.}.}.}.}.}.}.}.}.}.}.}.}.}.}.",
"}.}.}.}.}.}.}.}.}.}.}.}.}.}.}.}.}.}.}.}.}.}.}.}.}.}.}.}.}.}.}.}.}.- [.B.B.B.K.B.B.B.B.B.B.B.B.m.}.}.}.}.}.}.}.}.}.}.}.}.}.}.}.}.}.}.}.}.}.}.}.}.}.}.}.}.}.}.}.}.",
"o ].{././.P.L.L.J.Z.Z.C.C.M.M.N.z.z.9.8.8.7.o.X..... . . .] ] } ] / / ) / ! ! ! ! ! ! ~ Z C Z S ) ^ / ^ ^ ^ ) ^ ! ~ E E ~ E H H H H E W E E W W H ~ ~ ~ ~ ( % }.",
"O '.E.E.E.E.E.E.E.E.W.E.Q.Q.!.E.E.(.W.W.!.E.!.E.^.(.W.E.(.W.W.^.^.^.W.(.^.W.(.).^.W.W.(.).~.^.(.(.(.(.^.W.(.^.(.^.^.(.(.~.~.~.).(.(.~.~.~.~.(.(.(.(.(.(.^.(.(.X ",
"O !.(.E.E.!.(.E.W.W.W.W.!.!.!.E.^.W.W.W.^.!.E.(.W.W.W.W.^.W.W.W.^.(.W.E.W.W.W.W.(.W.W.(.W.W.W.W.~.W.W.^.W.W.W.W.W.W.W.W.(.~.).~.W.E.~.~.^.~.E.^.~.^.^.^.^.(.W.X ",
"O ^.W.W.(.^.!.!.^.!.^.!.^.!.!.^.!.^.!.!.^.!.^.!.^.^.(.(.^.!.!.!.(.^.!.^.!.^.(.^.^.!.!.!.).^.!.!.^.(.!.!.(.(.^.(.(.(.(.^.^.^.^.W.^.^.^.(.).).(.W.^.(.(.^.(.W.(.% ",
"  ^.(.(.Q.=.,.t.t.t.t.t.t.t.t.t.t.t.t.t.t.t.t.,.t.t.t.t.t.t.t.t.t.t.t.t.t.t.t.u.,.t.t.u.u.t.t.t.t.t.t.t.t.y.<.t.t.t.t.t.w.t.t.t.t.t.t.t.t.| (.W.(.(.(.(.(.W.E.X ",
"  ^.E.(.E.,.,.D y.t.y.y.y.t.t.y.t.t.t.y.t.y.t.t.t.t.t.t.t.u.t.t.u.w.t.t.w.u.t.t.t.t.w.w.w.t.y.w.t.u.w.t.y.t.t.t.t.t.y.t.y.y.t.t.t.t.B *.y.' (.!.^.^.W.(.^.(.W.X ",
"O ^.(.(.E.-.t.,.X t.t.y.y.t.t.t.y.t.y.y.t.t.y.t.,.t.t.u.<.#.O.T F k f r 9 > < 9 < < 9 9 w 9 0 h k D P T O.O.#.-.t.,.t.t.y.t.y.t.-.  y.t.y.' (.(.(.E._.E.(.E.W.  ",
"  ^.E.W.E.t.t.t.y., @.t.t.t.y.,.t.,.%.n X X }.}.}.}.}.}.}.}.}.}.}.}.}.}.}.}.}.}.}.}.}.}.}.}.}.}.}.}.}.}.}.}.}.}.}.}.. ,.t.y.t.$.1 y.t.t.t.5.(.!.p r.=.e.X !.E.X ",
"X Q.W.W.E.-.t.t.t.t.%.t.t.t.%.% }.}.}.}.}.}.}.}.}.}.}.}.}.}.}.}.}.}.}.}.}.}.}.}.}.}.}.}.}.}.}.}.}.}.}.}.}.}.}.}.}.}.}.}.1 y.t.=.y.y.t.t.y.4.!.} a.t.K t.*.4 (.  ",
"O ^.(.W.E.,.t.y.t.y.t.t.l }.}.}.}.}.}.}.}.}.}.}.}.}.}.}.}.}.}.}.}.}.}.}.}.}.}.}.}.}.}.}.}.}.}.}.}.}.}.}.}.}.}.}.}.}.}.}.}.* t.w.t.t.y.t.t.4.(.G w.y.T w.t.%.`.X ",
"X ^.E.W.Q.,.t.t.y.y.u.  }.}.}.}.}.}.}.}.}.}.}.}.}.}.}.}.}.}.}.}.}.}.}.}.}.}.}.}.}.}.}.}.}.}.}.}.}.}.}.}.}.}.}.}.}.}.}.}.}.}.r y.t.y.t.t.t.4.!.* w.t.u.&.t.$.Y.  ",
"  ^.!.W.T.t.y.t.t.,.}.}.}.}.}.}.}.}.}.}.}.}.}.}.}.}.}.}.}.}.}.}.}.}.}.}.}.}.}.}.}.}.}.}.}.}.}.}.}.}.}.}.}.}.}.}.}.}.}.}.}.}.}.=.t.t.t.t.t.4.!.^.%.< y.t t.` (.X ",
"O ^.!.!.E.,.y.y.t.}.}.}.}.}.}.}.}.}.}.}.}.}.}.}.}.}.}.}.}.}.}.}.}.}.}.}.}.}.}.}.}.}.}.}.}.}.}.}.}.}.}.}.}.}.}.}.}.}.}.}.}.}.}.  y.y.t.t.,.4.!.^.)._ > i l.(.E.  ",
"O Q.W.W.E.t.t.y.& }.}.}.}.}.}.}.}.}.}.}.}.}.}.}.}.}.}.}.}.}.}.}.}.}.}.}.}.}.}.}.}.}.}.}.}.}.}.}.}.}.}.}.}.}.}.}.}.}.}.}.}.}.}.}.=.t.t.y.t.0.(.^.!.(.^.(.(.^.W.X ",
"X E.^.(.E.-.t.;.}.}.}.}.}.}.}.}.}.}.}.}.}.}.}.}.}.}.}.}.}.}.}.}.}.}.}.}.}.}.}.}.}.}.}.}.}.}.}.}.}.}.}.}.}.}.}.}.}.}.}.}.}.}.}.}.1 t.y.y.t.0.(.(.!.!.(.(.(.W.E.X ",
"  E.(.W.E.w.t.n }.}.}.}.}.}.}.}.}.}.}.}.}.}.}.}.}.}.}.}.}.}.}.}.}.}.}.}.}.}.}.}.}.}.}.}.}.}.}.}.}.}.}.}.}.}.}.}.}.}.}.}.}.}.}.}.}.y.t.t.y.0.(.(.(.^.(.(.W.(.W.  ",
". ^.(.W.Q.,.y.X }.}.}.}.}.}.}.}.}.}.}.}.}.}.}.}.}.}.}.}.}.}.}.}.}.}.}.}.}.}.}.}.}.}.}.}.}.}.}.}.}.}.}.}.}.}.}.}.}.}.}.}.}.}.}.}.}.-.t.t.t.0.E.!.)._.(.).).(.^.  ",
"  ^.W.(.E.-.y.}.}.}.}.}.}.}.}.}.}.}.}.}.}.}.}.}.}.}.}.}.}.}.}.}.}.}.}.}.}.}.}.}.}.}.}.}.}.}.}.}.}.}.}.}.}.}.}.}.}.}.}.}.}.}.}.}.}.%.y.t.t.0.(.W.~ %.< &.V (.W.  ",
"O ^.W.(.E.w.u.}.}.}.}.}.}.}.}.}.}.}.}.}.}.}.}.}.}.}.}.}.}.}.}.}.}.}.}.}.}.}.}.}.}.}.}.}.}.}.}.}.}.}.}.}.}.}.}.}.}.}.}.}.}.}.}.}.}.M y.t.t.0.W.* y.e y.k y.2 ).  ",
"O ^.(.W.E.-.*.}.}.}.}.}.}.}.}.}.}.}.}.}.}.}.}.}.}.}.}.}.}.}.}.}.}.}.}.}.}.}.}.}.}.}.}.}.}.}.}.}.}.}.}.}.}.}.}.}.}.}.}.}.}.}.}.}.}., t.t.t.s.W.d.t.u.,.=.w.;.^.X ",
"  ^.W.W.E.-.Y }.}.}.}.}.}.}.}.}.}.}.}.}.}.}.}.}.}.}.}.}.}.}.}.}.}.}.}.}.}.}.}.}.}.}.}.}.}.}.}.}.}.}.}.}.}.}.}.}.}.}.}.}.}.}.}.}.}.% y.t.t.s.^., t.t.8 y.* -.T.  ",
"  ^.(.W.E.-.h }.}.}.}.}.}.}.}.}.}.}.}.}.}.}.}.}.}.}.}.}.}.}.}.}.}.}.}.}.}.}.}.}.}.}.}.}.}.}.}.}.}.}.}.}.}.}.}.}.}.}.}.}.}.}.}.}.}.& t.t.w.k.(.(.<.,.,.-.@.I _.. ",
"O (.W.W.E.-.8 }.}.}.}.}.}.}.}.}.}.}.}.}.}.}.}.}.}.}.}.}.}.}.}.}.}.}.}.}.}.}.}.}.}.}.}.}.}.}.}.}.}.}.}.}.}.}.}.}.}.}.}.}.}.}.}.}.}.}.t.t.t.k.!.E._.B l % V.T.!.}.",
". ^.(.W.^.-.8 }.}.}.}.}.}.}.}.}.}.}.}.}.}.}.}.}.}.}.}.}.}.}.}.}.}.}.}.}.}.}.}.}.}.}.}.}.}.}.}.}.}.}.}.}.}.}.}.}.}.}.}.}.}.}.}.}.}.}.t.t.w.s.!.E.E.(.(.!.(.(.!.}.",
"  E.E.(.E.-.8 }.}.}.}.}.}.}.}.}.}.}.}.}.}.}.}.}.}.}.}.}.}.}.}.}.}.}.}.}.}.}.}.}.}.}.}.}.}.}.}.}.}.}.}.}.}.}.}.}.}.}.}.}.}.}.}.}.}.}.t.t.w.s.!.!.!.!.!.!.!.!.!.}.",
"O ^.W.W.E.-.q }.}.}.}.}.}.}.}.}.}.}.}.}.}.}.}.}.}.}.}.}.}.}.}.}.}.}.}.}.}.}.}.}.}.}.}.}.}.}.}.}.}.}.}.}.}.}.}.}.}.}.}.}.}.}.}.}.}.}.t.t.-.V.(.(.!.!.!.(.^.(.(.}.",
"O ^.(.W.E.-.F }.}.}.}.}.}.}.}.}.}.}.}.}.}.}.}.}.}.}.}.}.}.}.}.}.}.}.}.}.}.}.}.}.}.}.}.}.}.}.}.}.}.}.}.}.}.}.}.}.}.}.}.}.}.}.}.}.}.}.t.t.w.V.E.(.W.W.W.!.(.(.!.}.",
"}.E.(.W.E.-.#.}.}.}.}.}.}.}.}.}.}.}.}.}.}.}.}.}.}.}.}.}.}.}.}.}.}.}.}.}.}.}.}.}.}.}.}.}.}.}.}.}.}.}.}.}.}.}.}.}.}.}.}.}.}.}.}.}.}.}.t.t.u.A.!.^.^.!.!.!.(.^.^.}.",
"}.^.(.(.E.-.=.}.}.}.}.}.}.}.}.}.}.}.}.}.}.}.}.}.}.}.}.}.}.}.}.}.}.}.}.}.}.}.}.}.}.}.}.}.}.}.}.}.}.}.}.}.}.}.}.}.}.}.}.}.}.}.}.}.}.}.t.t.p.V.E.<.t.,.u.,.e.[ _.}.",
"}.^.(.W.E.w.t.}.}.}.}.}.}.}.}.}.}.}.}.}.}.}.}.}.}.}.}.}.}.}.}.}.}.}.}.}.}.}.}.}.}.}.}.}.}.}.}.}.}.}.}.}.}.}.}.}.}.}.}.}.}.}.}.}.}.}.y.,.p.V.Q.>.w.w.[ r N -.~.}.",
"}.^.(.W.E.-.u.}.}.}.}.}.}.}.}.}.}.}.}.}.}.}.}.}.}.}.}.}.}.}.}.}.}.}.}.}.}.}.}.}.}.}.}.}.}.}.}.}.}.}.}.}.}.}.}.}.}.}.}.}.}.}.}.}.}.}.,.t.a.A.^.-.-.,.+.j M =._.}.",
"}.!.E.W.E.,.i.}.}.}.}.}.}.}.}.}.}.}.}.}.}.}.}.}.}.}.}.}.}.}.}.}.}.}.}.}.}.}.}.}.}.}.}.}.}.}.}.}.}.}.}.}.}.}.}.}.}.}.}.}.}.}.}.}.}.}.t.w.f.S.^.-.-.t.+.j y =.).}.",
"}.^.(.W.E.-.t.X }.}.}.}.}.}.}.}.}.}.}.}.}.}.}.}.}.}.}.}.}.}.}.}.}.}.}.}.}.}.}.}.}.}.}.}.}.}.}.}.}.}.}.}.}.}.}.}.}.}.}.}.}.}.}.}.}.% t.w.g.D.Q.>.w.w.1.0 y %._.}.",
"}.!.(.W.Q.,.t.l }.}.}.}.}.}.}.}.}.}.}.}.}.}.}.}.}.}.}.}.}.}.}.}.}.}.}.}.}.}.}.}.}.}.}.}.}.}.}.}.}.}.}.}.}.}.}.}.}.}.}.}.}.}.}.}.}.& t.t.h.G.Q.-.-.w.1.g y $._.}.",
"}.^.W.(.Q.,.y.#.}.}.}.}.}.}.}.}.}.}.}.}.}.}.}.}.}.}.}.}.}.}.}.}.}.}.}.}.}.}.}.}.}.}.}.}.}.}.}.}.}.}.}.}.}.}.}.}.}.}.}.}.}.}.}.}.}.u t.t.v.G.Q.>.,.-.+.8 y $._.}.",
"}.^.E.W.T.t.t.y.}.}.}.}.}.}.}.}.}.}.}.}.}.}.}.}.}.}.}.}.}.}.}.}.}.}.}.}.}.}.}.}.}.}.}.}.}.}.}.}.}.}.}.}.}.}.}.}.}.}.}.}.}.}.}.}.}.-.t.t.h.G.^.t.t.,.+.9 m #._.}.",
"}.^.(.!.E.,.y.y.b }.}.}.}.}.}.}.}.}.}.}.}.}.}.}.}.}.}.}.}.}.}.}.}.}.}.}.}.}.}.}.}.}.}.}.}.}.}.}.}.}.}.}.}.}.}.}.}.}.}.}.}.}.}.}.}.y.w.t.v.G.^.,.,.,.{ r V #._.}.",
"}.^.E.(.E.,.t.t.,.}.}.}.}.}.}.}.}.}.}.}.}.}.}.}.}.}.}.}.}.}.}.}.}.}.}.}.}.}.}.}.}.}.}.}.}.}.}.}.}.}.}.}.}.}.}.}.}.}.}.}.}.}.}.}.% t.t.w.h.T.^.>.t.-.U w L #._.}.",
"}.!.(.W.E.w.t.y.t.J }.}.}.}.}.}.}.}.}.}.}.}.}.}.}.}.}.}.}.}.}.}.}.}.}.}.}.}.}.}.}.}.}.}.}.}.}.}.}.}.}.}.}.}.}.}.}.}.}.}.}.}.}.}.t.t.t.w.b.D.E.-.,.-.J w U #.~.}.",
"}.^.(.W.E.-.t.t.t.t.% }.}.}.}.}.}.}.}.}.}.}.}.}.}.}.}.}.}.}.}.}.}.}.}.}.}.}.}.}.}.}.}.}.}.}.}.}.}.}.}.}.}.}.}.}.}.}.}.}.}.}.}.#.t.y.t.w.b.S.Q.e.t.,.B q { -.).}.",
"}.^.(.W.Q.,.y.t.y.t.y.% }.}.}.}.}.}.}.}.}.}.}.}.}.}.}.}.}.}.}.}.}.}.}.}.}.}.}.}.}.}.}.}.}.}.}.}.}.}.}.}.}.}.}.}.}.}.}.}.}.}.*.u.t.y.t.w.b.D.^.< < 1 < < 4 b ).}.",
"}.^.(.W.E.-.y.y.,.y.t.t.J }.}.}.}.}.}.}.}.}.}.}.}.}.}.}.}.}.}.}.}.}.}.}.}.}.}.}.}.}.}.}.}.}.}.}.}.}.}.}.}.}.}.}.}.}.}.}.& w.t.t.y.y.y.t.b.S.!.!.!.!.!.!.!.(.!.}.",
"}.!.W.W.E.w.y.w.,.<.l t.t.t.,.$.N   . }.}.}.}.}.}.}.}.}.}.}.}.}.}.}.}.}.}.}.}.}.}.}.}.}.}.}.}.}.}.}.}.}.}.}.}.}.}.  J y.t.t.t.t.t.t.t.w.b.S.!.!.!.(.!.(.!.!.!.}.",
"}.^.E.E.E.w.y.,.X =.y.t.y.y.y.y.t.y.t.t.t.,.t.,.,.T l = % X   }.}.}.}.}.}.}.}.}.}.}.}.}.}.}.}.}.}.}.  % r P -.,.t.t.y.t.y.t.t.t.% ,.y.,.x.S.E.!.(.(.(.^.(.(.!.}.",
"}.^.(.(.E.-.<.% t.y.y.t.t.t.y.t.t.t.y.t.t.t.t.t.t.t.t.w.t.t.t.t.y.t.t.,.t.t.t.t.t.t.t.t.t.t.t.t.t.t.t.t.w.t.t.t.y.y.t.y.y.t.t.y.t.Y t -.x.S.(.W.^.(.(.(.!.!.!.}.",
"}.^.W.(.R.-.<.t.t.t.t.t.y.y.y.t.y.y.t.t.t.t.t.t.t.w.t.t.t.t.w.t.y.t.t.t.t.t.y.t.t.t.t.t.w.t.t.w.w.w.w.w.w.w.w.t.w.w.w.w.w.w.w.w.t.-.-.X x.D.(.^.^.(.(.!.!.(.!.}.",
"}.!.(.E.!.l.q.j.k.k.q.3.3.3.3.3.2.' ' ' ' ' ' A H A A A Z a a a a s s 5 4 5 5 6 5 : : : : 2 2 = = = : 3 3 3 3 3 3 4 6 w u w u z z v c c p F.(.W.(.!.(.!.!.!.!.}.",
"}.^.!.^.(.(.!.!.!.!.!.!.!.!.).!.!.!.!.!.!.!.!.!.!.!.(.(.(.(.^.(.(.!.!.!.!.!.^.(.!.^.(.!.!.!.!.(.^.W.(.(.(.^.^.(.(.!.(.^.(.E.(.!.E.!.^.(.^.(.(.(.(.!.!.!.(.!.!.}.",
"}.E.!.!.!.(.^.(.!.).!.!.!.!.!.!.!.!.!.(.!.!.(.!.(.!.^.(.(.W.^.(.!.!.(.(.!.!.(.(.!.(.(.(.!.!.!.!.(.(.^.(.(.(.(.(.(.E.(.(.(.(.(.(.!.(.(.(.(.(.(.^.!.!.(.!.!.!.!.}.",
"}.^.(.).~.~.).!.!.!.~._.).).).).).).).).).).).).(.).).).).).).).).).).).).).^.(.).(.).^.).(.).^.(.(.).).^.(.).(.).(.).).).).(.).(.).).).(.).).(.).(.).).).!.H.}.",
"}.}.}.}..   . . .   }.}.}.}.}.}.}.}.}.}.}.}.}.}.}.}.}.}.}.}.}.}.}.}.}.}.}.                                                                X             X X   }.",
"}.}.}.}.; ; ; ; $ }.}.}.}.}.}.}.}.}.}.}.}.}.}.}.}.}.}.}.}.}.}.}.}.}.}.}.}.}.}.}.}.}.}.}.}.}.}.}.}.}.}.}.}.}.}.}.}.}.}.}.}.}.}.}.}.}.}.}.}.}.}.@ ; ; ; ; }.}.}.}.",
"}.}.}.}.; ; ; # }.}.}.}.}.}.}.}.}.}.}.}.}.}.}.}.}.}.}.}.}.}.}.}.}.}.}.}.}.}.}.}.}.}.}.}.}.}.}.}.}.}.}.}.}.}.}.}.}.}.}.}.}.}.}.}.}.}.}.}.}.}.}.}.; ; ; ; }.}.}.}.",
"}.}.}.}.; ; ; + }.}.}.}.}.}.}.}.}.}.}.}.}.}.}.}.}.}.}.}.}.}.}.}.}.}.}.}.}.}.}.}.}.}.}.}.}.}.}.}.}.}.}.}.}.}.}.}.}.}.}.}.}.}.}.}.}.}.}.}.}.}.}.}.}.; ; ; }.}.}.}.",
"}.}.}.}.; ; ; }.}.}.}.}.}.}.}.}.}.}.}.}.}.}.}.}.}.}.}.}.}.}.}.}.}.}.}.}.}.}.}.}.}.}.}.}.}.}.}.}.}.}.}.}.}.}.}.}.}.}.}.}.}.}.}.}.}.}.}.}.}.}.}.}.}.@ ; ; }.}.}.}.",
"}.}.}.}.; ; }.}.}.}.}.}.}.}.}.}.}.}.}.}.}.}.}.}.}.}.}.}.}.}.}.}.}.}.}.}.}.}.}.}.}.}.}.}.}.}.}.}.}.}.}.}.}.}.}.}.}.}.}.}.}.}.}.}.}.}.}.}.}.}.}.}.}.}.# ;   }.}.}.",
"}.}.}.}.$ $ }.}.}.}.}.}.}.}.}.}.}.}.}.}.}.}.}.}.}.}.}.}.}.}.}.}.}.}.}.}.}.}.}.}.}.}.}.}.}.}.}.}.}.}.}.}.}.}.}.}.}.}.}.}.}.}.}.}.}.}.}.}.}.}.}.}.}.}.+ # @ }.}.}."
};
